<mxfile host="app.diagrams.net" modified="2024-04-06T11:30:43.010Z" agent="Mozilla/5.0 (Windows NT 10.0; Win64; x64) AppleWebKit/537.36 (KHTML, like Gecko) Chrome/123.0.0.0 Safari/537.36 Edg/123.0.0.0" etag="6tnt5ffp-inDds8Q4vcP" version="24.2.2" type="device" pages="8">
  <diagram id="8hNkeXXOuMVZ5C6kS7wn" name="IsBoardFull()">
    <mxGraphModel dx="2473" dy="1282" grid="1" gridSize="10" guides="1" tooltips="1" connect="1" arrows="1" fold="1" page="1" pageScale="1" pageWidth="827" pageHeight="1169" math="0" shadow="0">
      <root>
        <mxCell id="0" />
        <mxCell id="1" parent="0" />
        <mxCell id="h49E7wubyfYJ_4juDYuw-1" value="начало" style="strokeWidth=1;html=1;shape=mxgraph.flowchart.start_1;whiteSpace=wrap;" parent="1" vertex="1">
          <mxGeometry x="330" y="130" width="180" height="60" as="geometry" />
        </mxCell>
        <mxCell id="h49E7wubyfYJ_4juDYuw-2" value="" style="strokeWidth=1;html=1;shape=mxgraph.flowchart.annotation_2;align=left;labelPosition=right;pointerEvents=1;" parent="1" vertex="1">
          <mxGeometry x="590" y="110" width="50" height="100" as="geometry" />
        </mxCell>
        <mxCell id="h49E7wubyfYJ_4juDYuw-3" value="" style="endArrow=none;dashed=1;html=1;dashPattern=1 3;strokeWidth=2;rounded=0;entryX=0;entryY=0.5;entryDx=0;entryDy=0;entryPerimeter=0;" parent="1" source="h49E7wubyfYJ_4juDYuw-1" target="h49E7wubyfYJ_4juDYuw-2" edge="1">
          <mxGeometry width="50" height="50" relative="1" as="geometry">
            <mxPoint x="460" y="380" as="sourcePoint" />
            <mxPoint x="510" y="330" as="targetPoint" />
          </mxGeometry>
        </mxCell>
        <mxCell id="h49E7wubyfYJ_4juDYuw-4" value="&lt;div&gt;IsBoardFull()&lt;/div&gt;" style="text;html=1;align=center;verticalAlign=middle;resizable=0;points=[];autosize=1;strokeColor=none;fillColor=none;" parent="1" vertex="1">
          <mxGeometry x="640" y="145" width="90" height="30" as="geometry" />
        </mxCell>
        <mxCell id="h49E7wubyfYJ_4juDYuw-5" value="" style="endArrow=classic;html=1;rounded=0;" parent="1" source="h49E7wubyfYJ_4juDYuw-1" edge="1">
          <mxGeometry width="50" height="50" relative="1" as="geometry">
            <mxPoint x="410" y="350" as="sourcePoint" />
            <mxPoint x="420" y="220" as="targetPoint" />
          </mxGeometry>
        </mxCell>
        <mxCell id="DL614oyRTnzPpos-jdnv-1" value="cell&amp;lt;playerCells.Concat(botCells)" style="strokeWidth=1;html=1;shape=mxgraph.flowchart.decision;whiteSpace=wrap;" vertex="1" parent="1">
          <mxGeometry x="330" y="310" width="180" height="60" as="geometry" />
        </mxCell>
        <mxCell id="dwWpGGdKtNrsuHM4KuYk-1" value="false" style="shape=parallelogram;html=1;strokeWidth=1;perimeter=parallelogramPerimeter;whiteSpace=wrap;rounded=1;arcSize=12;size=0.23;" vertex="1" parent="1">
          <mxGeometry x="330" y="669" width="180" height="60" as="geometry" />
        </mxCell>
        <mxCell id="4sV1I5_GdgDVBsvFId1l-1" value="i = 0" style="rounded=0;whiteSpace=wrap;html=1;" vertex="1" parent="1">
          <mxGeometry x="330" y="220" width="180" height="60" as="geometry" />
        </mxCell>
        <mxCell id="4sV1I5_GdgDVBsvFId1l-2" value="cell = playerCells.Concat(botCells)[i]" style="rounded=0;whiteSpace=wrap;html=1;" vertex="1" parent="1">
          <mxGeometry x="330" y="400" width="180" height="60" as="geometry" />
        </mxCell>
        <mxCell id="4sV1I5_GdgDVBsvFId1l-3" value="cell.Content == null" style="strokeWidth=1;html=1;shape=mxgraph.flowchart.decision;whiteSpace=wrap;" vertex="1" parent="1">
          <mxGeometry x="330" y="490" width="180" height="60" as="geometry" />
        </mxCell>
        <mxCell id="4sV1I5_GdgDVBsvFId1l-4" value="true" style="shape=parallelogram;html=1;strokeWidth=1;perimeter=parallelogramPerimeter;whiteSpace=wrap;rounded=1;arcSize=12;size=0.23;" vertex="1" parent="1">
          <mxGeometry x="120" y="670" width="180" height="60" as="geometry" />
        </mxCell>
        <mxCell id="4sV1I5_GdgDVBsvFId1l-5" value="i++" style="rounded=0;whiteSpace=wrap;html=1;" vertex="1" parent="1">
          <mxGeometry x="330" y="580" width="180" height="60" as="geometry" />
        </mxCell>
        <mxCell id="4sV1I5_GdgDVBsvFId1l-6" value="начало" style="strokeWidth=1;html=1;shape=mxgraph.flowchart.start_1;whiteSpace=wrap;" vertex="1" parent="1">
          <mxGeometry x="330" y="820" width="180" height="60" as="geometry" />
        </mxCell>
        <mxCell id="4sV1I5_GdgDVBsvFId1l-7" value="" style="endArrow=classic;html=1;rounded=0;" edge="1" parent="1" source="4sV1I5_GdgDVBsvFId1l-3">
          <mxGeometry width="50" height="50" relative="1" as="geometry">
            <mxPoint x="850" y="540" as="sourcePoint" />
            <mxPoint x="580" y="520" as="targetPoint" />
          </mxGeometry>
        </mxCell>
        <mxCell id="4sV1I5_GdgDVBsvFId1l-8" value="" style="endArrow=classic;html=1;rounded=0;" edge="1" parent="1" source="4sV1I5_GdgDVBsvFId1l-2" target="4sV1I5_GdgDVBsvFId1l-3">
          <mxGeometry width="50" height="50" relative="1" as="geometry">
            <mxPoint x="850" y="540" as="sourcePoint" />
            <mxPoint x="900" y="490" as="targetPoint" />
          </mxGeometry>
        </mxCell>
        <mxCell id="4sV1I5_GdgDVBsvFId1l-9" value="" style="endArrow=classic;html=1;rounded=0;" edge="1" parent="1" target="4sV1I5_GdgDVBsvFId1l-4">
          <mxGeometry width="50" height="50" relative="1" as="geometry">
            <mxPoint x="210" y="340" as="sourcePoint" />
            <mxPoint x="900" y="490" as="targetPoint" />
          </mxGeometry>
        </mxCell>
        <mxCell id="4sV1I5_GdgDVBsvFId1l-10" value="" style="endArrow=classic;html=1;rounded=0;" edge="1" parent="1" source="DL614oyRTnzPpos-jdnv-1">
          <mxGeometry width="50" height="50" relative="1" as="geometry">
            <mxPoint x="850" y="540" as="sourcePoint" />
            <mxPoint x="210" y="340" as="targetPoint" />
          </mxGeometry>
        </mxCell>
        <mxCell id="4sV1I5_GdgDVBsvFId1l-11" value="" style="endArrow=classic;html=1;rounded=0;" edge="1" parent="1" source="DL614oyRTnzPpos-jdnv-1" target="4sV1I5_GdgDVBsvFId1l-2">
          <mxGeometry width="50" height="50" relative="1" as="geometry">
            <mxPoint x="850" y="540" as="sourcePoint" />
            <mxPoint x="900" y="490" as="targetPoint" />
          </mxGeometry>
        </mxCell>
        <mxCell id="4sV1I5_GdgDVBsvFId1l-12" value="" style="endArrow=classic;html=1;rounded=0;" edge="1" parent="1" source="4sV1I5_GdgDVBsvFId1l-1" target="DL614oyRTnzPpos-jdnv-1">
          <mxGeometry width="50" height="50" relative="1" as="geometry">
            <mxPoint x="850" y="540" as="sourcePoint" />
            <mxPoint x="900" y="490" as="targetPoint" />
          </mxGeometry>
        </mxCell>
        <mxCell id="4sV1I5_GdgDVBsvFId1l-13" value="да" style="text;html=1;align=center;verticalAlign=middle;resizable=0;points=[];autosize=1;strokeColor=none;fillColor=none;" vertex="1" parent="1">
          <mxGeometry x="430" y="360" width="40" height="30" as="geometry" />
        </mxCell>
        <mxCell id="4sV1I5_GdgDVBsvFId1l-14" value="нет" style="text;html=1;align=center;verticalAlign=middle;resizable=0;points=[];autosize=1;strokeColor=none;fillColor=none;" vertex="1" parent="1">
          <mxGeometry x="300" y="348" width="40" height="30" as="geometry" />
        </mxCell>
        <mxCell id="4sV1I5_GdgDVBsvFId1l-16" value="" style="endArrow=classic;html=1;rounded=0;" edge="1" parent="1">
          <mxGeometry width="50" height="50" relative="1" as="geometry">
            <mxPoint x="210" y="770" as="sourcePoint" />
            <mxPoint x="420" y="770" as="targetPoint" />
          </mxGeometry>
        </mxCell>
        <mxCell id="4sV1I5_GdgDVBsvFId1l-17" value="" style="endArrow=classic;html=1;rounded=0;" edge="1" parent="1" source="4sV1I5_GdgDVBsvFId1l-4">
          <mxGeometry width="50" height="50" relative="1" as="geometry">
            <mxPoint x="850" y="540" as="sourcePoint" />
            <mxPoint x="210" y="770" as="targetPoint" />
          </mxGeometry>
        </mxCell>
        <mxCell id="4sV1I5_GdgDVBsvFId1l-18" value="" style="endArrow=classic;html=1;rounded=0;" edge="1" parent="1" source="dwWpGGdKtNrsuHM4KuYk-1" target="4sV1I5_GdgDVBsvFId1l-6">
          <mxGeometry width="50" height="50" relative="1" as="geometry">
            <mxPoint x="850" y="540" as="sourcePoint" />
            <mxPoint x="900" y="490" as="targetPoint" />
          </mxGeometry>
        </mxCell>
        <mxCell id="4sV1I5_GdgDVBsvFId1l-19" value="" style="endArrow=classic;html=1;rounded=0;" edge="1" parent="1" source="4sV1I5_GdgDVBsvFId1l-5" target="dwWpGGdKtNrsuHM4KuYk-1">
          <mxGeometry width="50" height="50" relative="1" as="geometry">
            <mxPoint x="850" y="540" as="sourcePoint" />
            <mxPoint x="900" y="490" as="targetPoint" />
          </mxGeometry>
        </mxCell>
        <mxCell id="4sV1I5_GdgDVBsvFId1l-20" value="" style="endArrow=classic;html=1;rounded=0;" edge="1" parent="1" source="4sV1I5_GdgDVBsvFId1l-3" target="4sV1I5_GdgDVBsvFId1l-5">
          <mxGeometry width="50" height="50" relative="1" as="geometry">
            <mxPoint x="850" y="537" as="sourcePoint" />
            <mxPoint x="900" y="487" as="targetPoint" />
          </mxGeometry>
        </mxCell>
        <mxCell id="4sV1I5_GdgDVBsvFId1l-21" value="" style="endArrow=classic;html=1;rounded=0;" edge="1" parent="1">
          <mxGeometry width="50" height="50" relative="1" as="geometry">
            <mxPoint x="580" y="520" as="sourcePoint" />
            <mxPoint x="580" y="340" as="targetPoint" />
          </mxGeometry>
        </mxCell>
        <mxCell id="4sV1I5_GdgDVBsvFId1l-22" value="" style="endArrow=classic;html=1;rounded=0;" edge="1" parent="1" target="DL614oyRTnzPpos-jdnv-1">
          <mxGeometry width="50" height="50" relative="1" as="geometry">
            <mxPoint x="580" y="340" as="sourcePoint" />
            <mxPoint x="900" y="490" as="targetPoint" />
          </mxGeometry>
        </mxCell>
        <mxCell id="4sV1I5_GdgDVBsvFId1l-23" value="да" style="text;html=1;align=center;verticalAlign=middle;resizable=0;points=[];autosize=1;strokeColor=none;fillColor=none;" vertex="1" parent="1">
          <mxGeometry x="380" y="539" width="40" height="30" as="geometry" />
        </mxCell>
        <mxCell id="4sV1I5_GdgDVBsvFId1l-24" value="нет" style="text;html=1;align=center;verticalAlign=middle;resizable=0;points=[];autosize=1;strokeColor=none;fillColor=none;" vertex="1" parent="1">
          <mxGeometry x="500" y="488" width="40" height="30" as="geometry" />
        </mxCell>
      </root>
    </mxGraphModel>
  </diagram>
  <diagram id="LVV2dIKV1MudNSx5Avxg" name="CalculatePoints(List&lt;Button&gt; cells, int card)">
    <mxGraphModel dx="1600" dy="829" grid="1" gridSize="10" guides="1" tooltips="1" connect="1" arrows="1" fold="1" page="1" pageScale="1" pageWidth="827" pageHeight="1169" math="0" shadow="0">
      <root>
        <mxCell id="0" />
        <mxCell id="1" parent="0" />
        <mxCell id="mcgZea9q71QwaPTiuR2x-1" value="CalculatePoints(List&lt;Button&gt; cells, int card)" style="text;whiteSpace=wrap;verticalAlign=middle;align=center;" parent="1" vertex="1">
          <mxGeometry x="430" y="60" width="270" height="40" as="geometry" />
        </mxCell>
        <mxCell id="g4nRhd8Vo9tC90K0fsEj-1" value="начало" style="strokeWidth=1;html=1;shape=mxgraph.flowchart.start_1;whiteSpace=wrap;" parent="1" vertex="1">
          <mxGeometry x="120" y="50" width="180" height="60" as="geometry" />
        </mxCell>
        <mxCell id="g4nRhd8Vo9tC90K0fsEj-2" value="" style="strokeWidth=1;html=1;shape=mxgraph.flowchart.annotation_2;align=left;labelPosition=right;pointerEvents=1;" parent="1" vertex="1">
          <mxGeometry x="380" y="30" width="50" height="100" as="geometry" />
        </mxCell>
        <mxCell id="g4nRhd8Vo9tC90K0fsEj-3" value="" style="endArrow=none;dashed=1;html=1;dashPattern=1 3;strokeWidth=2;rounded=0;entryX=0;entryY=0.5;entryDx=0;entryDy=0;entryPerimeter=0;" parent="1" source="g4nRhd8Vo9tC90K0fsEj-1" target="g4nRhd8Vo9tC90K0fsEj-2" edge="1">
          <mxGeometry width="50" height="50" relative="1" as="geometry">
            <mxPoint x="250" y="300" as="sourcePoint" />
            <mxPoint x="300" y="250" as="targetPoint" />
          </mxGeometry>
        </mxCell>
        <mxCell id="g4nRhd8Vo9tC90K0fsEj-62" value="" style="endArrow=classic;html=1;rounded=0;" parent="1" edge="1">
          <mxGeometry width="50" height="50" relative="1" as="geometry">
            <mxPoint x="80" y="450" as="sourcePoint" />
            <mxPoint x="80" y="590" as="targetPoint" />
          </mxGeometry>
        </mxCell>
        <mxCell id="g4nRhd8Vo9tC90K0fsEj-63" value="" style="endArrow=classic;html=1;rounded=0;" parent="1" edge="1">
          <mxGeometry width="50" height="50" relative="1" as="geometry">
            <mxPoint x="80" y="590" as="sourcePoint" />
            <mxPoint x="210" y="590" as="targetPoint" />
          </mxGeometry>
        </mxCell>
        <mxCell id="g4nRhd8Vo9tC90K0fsEj-64" value="" style="endArrow=classic;html=1;rounded=0;" parent="1" source="E6UptOeZk_giCbFkkTzN-5" edge="1">
          <mxGeometry width="50" height="50" relative="1" as="geometry">
            <mxPoint x="390" y="240" as="sourcePoint" />
            <mxPoint x="80" y="450" as="targetPoint" />
          </mxGeometry>
        </mxCell>
        <mxCell id="g4nRhd8Vo9tC90K0fsEj-65" value="" style="endArrow=classic;html=1;rounded=0;" parent="1" edge="1">
          <mxGeometry width="50" height="50" relative="1" as="geometry">
            <mxPoint x="210" y="590" as="sourcePoint" />
            <mxPoint x="210" y="620" as="targetPoint" />
          </mxGeometry>
        </mxCell>
        <mxCell id="g4nRhd8Vo9tC90K0fsEj-66" value="" style="endArrow=classic;html=1;rounded=0;" parent="1" edge="1">
          <mxGeometry width="50" height="50" relative="1" as="geometry">
            <mxPoint x="120" y="650" as="sourcePoint" />
            <mxPoint x="60" y="650" as="targetPoint" />
          </mxGeometry>
        </mxCell>
        <mxCell id="g4nRhd8Vo9tC90K0fsEj-68" value="" style="endArrow=classic;html=1;rounded=0;" parent="1" target="E6UptOeZk_giCbFkkTzN-2" edge="1">
          <mxGeometry width="50" height="50" relative="1" as="geometry">
            <mxPoint x="350" y="270" as="sourcePoint" />
            <mxPoint x="440" y="190" as="targetPoint" />
          </mxGeometry>
        </mxCell>
        <mxCell id="g4nRhd8Vo9tC90K0fsEj-69" value="" style="endArrow=classic;html=1;rounded=0;" parent="1" edge="1">
          <mxGeometry width="50" height="50" relative="1" as="geometry">
            <mxPoint x="350" y="540" as="sourcePoint" />
            <mxPoint x="350" y="270" as="targetPoint" />
          </mxGeometry>
        </mxCell>
        <mxCell id="g4nRhd8Vo9tC90K0fsEj-70" value="" style="endArrow=classic;html=1;rounded=0;" parent="1" source="E6UptOeZk_giCbFkkTzN-6" edge="1">
          <mxGeometry width="50" height="50" relative="1" as="geometry">
            <mxPoint x="390" y="240" as="sourcePoint" />
            <mxPoint x="350" y="540" as="targetPoint" />
          </mxGeometry>
        </mxCell>
        <mxCell id="g4nRhd8Vo9tC90K0fsEj-71" value="" style="endArrow=classic;html=1;rounded=0;" parent="1" source="E6UptOeZk_giCbFkkTzN-5" target="E6UptOeZk_giCbFkkTzN-6" edge="1">
          <mxGeometry width="50" height="50" relative="1" as="geometry">
            <mxPoint x="390" y="240" as="sourcePoint" />
            <mxPoint x="440" y="190" as="targetPoint" />
          </mxGeometry>
        </mxCell>
        <mxCell id="g4nRhd8Vo9tC90K0fsEj-72" value="" style="endArrow=classic;html=1;rounded=0;" parent="1" source="E6UptOeZk_giCbFkkTzN-4" target="E6UptOeZk_giCbFkkTzN-5" edge="1">
          <mxGeometry width="50" height="50" relative="1" as="geometry">
            <mxPoint x="390" y="240" as="sourcePoint" />
            <mxPoint x="440" y="190" as="targetPoint" />
          </mxGeometry>
        </mxCell>
        <mxCell id="g4nRhd8Vo9tC90K0fsEj-73" value="" style="endArrow=classic;html=1;rounded=0;" parent="1" source="g4nRhd8Vo9tC90K0fsEj-1" target="g4nRhd8Vo9tC90K0fsEj-81" edge="1">
          <mxGeometry width="50" height="50" relative="1" as="geometry">
            <mxPoint x="390" y="240" as="sourcePoint" />
            <mxPoint x="440" y="190" as="targetPoint" />
          </mxGeometry>
        </mxCell>
        <mxCell id="g4nRhd8Vo9tC90K0fsEj-74" value="" style="endArrow=classic;html=1;rounded=0;" parent="1" source="E6UptOeZk_giCbFkkTzN-2" target="E6UptOeZk_giCbFkkTzN-4" edge="1">
          <mxGeometry width="50" height="50" relative="1" as="geometry">
            <mxPoint x="390" y="240" as="sourcePoint" />
            <mxPoint x="210" y="340" as="targetPoint" />
          </mxGeometry>
        </mxCell>
        <mxCell id="g4nRhd8Vo9tC90K0fsEj-75" value="" style="endArrow=classic;html=1;rounded=0;exitX=0.5;exitY=1;exitDx=0;exitDy=0;entryX=0.5;entryY=0;entryDx=0;entryDy=0;" parent="1" source="g4nRhd8Vo9tC90K0fsEj-81" target="E6UptOeZk_giCbFkkTzN-2" edge="1">
          <mxGeometry width="50" height="50" relative="1" as="geometry">
            <mxPoint x="390" y="240" as="sourcePoint" />
            <mxPoint x="440" y="190" as="targetPoint" />
          </mxGeometry>
        </mxCell>
        <mxCell id="g4nRhd8Vo9tC90K0fsEj-76" value="" style="endArrow=classic;html=1;rounded=0;exitX=0.961;exitY=0.525;exitDx=0;exitDy=0;exitPerimeter=0;" parent="1" source="g4nRhd8Vo9tC90K0fsEj-81" edge="1">
          <mxGeometry width="50" height="50" relative="1" as="geometry">
            <mxPoint x="390" y="240" as="sourcePoint" />
            <mxPoint x="530" y="172" as="targetPoint" />
          </mxGeometry>
        </mxCell>
        <mxCell id="g4nRhd8Vo9tC90K0fsEj-77" value="" style="endArrow=classic;html=1;rounded=0;" parent="1" edge="1">
          <mxGeometry width="50" height="50" relative="1" as="geometry">
            <mxPoint x="60" y="650" as="sourcePoint" />
            <mxPoint x="60" y="170" as="targetPoint" />
          </mxGeometry>
        </mxCell>
        <mxCell id="g4nRhd8Vo9tC90K0fsEj-78" value="" style="endArrow=classic;html=1;rounded=0;" parent="1" source="E6UptOeZk_giCbFkkTzN-2" edge="1">
          <mxGeometry width="50" height="50" relative="1" as="geometry">
            <mxPoint x="390" y="240" as="sourcePoint" />
            <mxPoint x="60" y="270" as="targetPoint" />
          </mxGeometry>
        </mxCell>
        <mxCell id="g4nRhd8Vo9tC90K0fsEj-79" value="" style="endArrow=classic;html=1;rounded=0;entryX=0;entryY=0.5;entryDx=0;entryDy=0;" parent="1" target="g4nRhd8Vo9tC90K0fsEj-81" edge="1">
          <mxGeometry width="50" height="50" relative="1" as="geometry">
            <mxPoint x="60" y="170" as="sourcePoint" />
            <mxPoint x="440" y="190" as="targetPoint" />
          </mxGeometry>
        </mxCell>
        <mxCell id="g4nRhd8Vo9tC90K0fsEj-85" value="" style="group" parent="1" vertex="1" connectable="0">
          <mxGeometry x="768" y="241" width="180" height="60" as="geometry" />
        </mxCell>
        <mxCell id="g4nRhd8Vo9tC90K0fsEj-83" value="" style="verticalLabelPosition=bottom;verticalAlign=top;html=1;shape=hexagon;perimeter=hexagonPerimeter2;arcSize=6;size=0.27;" parent="g4nRhd8Vo9tC90K0fsEj-85" vertex="1">
          <mxGeometry width="180" height="60" as="geometry" />
        </mxCell>
        <mxCell id="g4nRhd8Vo9tC90K0fsEj-84" value="i = 0, 5" style="text;html=1;align=center;verticalAlign=middle;resizable=0;points=[];autosize=1;strokeColor=none;fillColor=none;" parent="g4nRhd8Vo9tC90K0fsEj-85" vertex="1">
          <mxGeometry x="60" y="15" width="60" height="30" as="geometry" />
        </mxCell>
        <mxCell id="g4nRhd8Vo9tC90K0fsEj-86" value="" style="group" parent="1" vertex="1" connectable="0">
          <mxGeometry x="120" y="140" width="180" height="60" as="geometry" />
        </mxCell>
        <mxCell id="g4nRhd8Vo9tC90K0fsEj-81" value="" style="verticalLabelPosition=bottom;verticalAlign=top;html=1;shape=hexagon;perimeter=hexagonPerimeter2;arcSize=6;size=0.27;" parent="g4nRhd8Vo9tC90K0fsEj-86" vertex="1">
          <mxGeometry width="180" height="60" as="geometry" />
        </mxCell>
        <mxCell id="g4nRhd8Vo9tC90K0fsEj-82" value="row = 0, 5" style="text;html=1;align=center;verticalAlign=middle;resizable=0;points=[];autosize=1;strokeColor=none;fillColor=none;" parent="g4nRhd8Vo9tC90K0fsEj-86" vertex="1">
          <mxGeometry x="50" y="15" width="80" height="30" as="geometry" />
        </mxCell>
        <mxCell id="E6UptOeZk_giCbFkkTzN-1" value="" style="group" parent="1" vertex="1" connectable="0">
          <mxGeometry x="120" y="240" width="180" height="60" as="geometry" />
        </mxCell>
        <mxCell id="E6UptOeZk_giCbFkkTzN-2" value="" style="verticalLabelPosition=bottom;verticalAlign=top;html=1;shape=hexagon;perimeter=hexagonPerimeter2;arcSize=6;size=0.27;" parent="E6UptOeZk_giCbFkkTzN-1" vertex="1">
          <mxGeometry width="180" height="60" as="geometry" />
        </mxCell>
        <mxCell id="E6UptOeZk_giCbFkkTzN-3" value="col = 0, 5" style="text;html=1;align=center;verticalAlign=middle;resizable=0;points=[];autosize=1;strokeColor=none;fillColor=none;" parent="E6UptOeZk_giCbFkkTzN-1" vertex="1">
          <mxGeometry x="55" y="15" width="70" height="30" as="geometry" />
        </mxCell>
        <mxCell id="E6UptOeZk_giCbFkkTzN-4" value="Button cell = cells[row * 5 + col]" style="rounded=0;whiteSpace=wrap;html=1;" parent="1" vertex="1">
          <mxGeometry x="120" y="330" width="180" height="60" as="geometry" />
        </mxCell>
        <mxCell id="E6UptOeZk_giCbFkkTzN-5" value="cell.Content?.ToString() == card.ToString()" style="strokeWidth=1;html=1;shape=mxgraph.flowchart.decision;whiteSpace=wrap;" parent="1" vertex="1">
          <mxGeometry x="120" y="420" width="180" height="60" as="geometry" />
        </mxCell>
        <mxCell id="E6UptOeZk_giCbFkkTzN-6" value="count++" style="rounded=0;whiteSpace=wrap;html=1;" parent="1" vertex="1">
          <mxGeometry x="120" y="510" width="180" height="60" as="geometry" />
        </mxCell>
        <mxCell id="FroAVm4sZJ1-fi3YX2zG-1" value="" style="endArrow=classic;html=1;rounded=0;" parent="1" edge="1">
          <mxGeometry width="50" height="50" relative="1" as="geometry">
            <mxPoint x="400" y="500" as="sourcePoint" />
            <mxPoint x="400" y="640" as="targetPoint" />
          </mxGeometry>
        </mxCell>
        <mxCell id="FroAVm4sZJ1-fi3YX2zG-2" value="" style="endArrow=classic;html=1;rounded=0;" parent="1" edge="1">
          <mxGeometry width="50" height="50" relative="1" as="geometry">
            <mxPoint x="400" y="640" as="sourcePoint" />
            <mxPoint x="530" y="640" as="targetPoint" />
          </mxGeometry>
        </mxCell>
        <mxCell id="FroAVm4sZJ1-fi3YX2zG-3" value="" style="endArrow=classic;html=1;rounded=0;" parent="1" source="FroAVm4sZJ1-fi3YX2zG-25" edge="1">
          <mxGeometry width="50" height="50" relative="1" as="geometry">
            <mxPoint x="710" y="290" as="sourcePoint" />
            <mxPoint x="400" y="500" as="targetPoint" />
          </mxGeometry>
        </mxCell>
        <mxCell id="FroAVm4sZJ1-fi3YX2zG-4" value="" style="endArrow=classic;html=1;rounded=0;" parent="1" edge="1">
          <mxGeometry width="50" height="50" relative="1" as="geometry">
            <mxPoint x="530" y="640" as="sourcePoint" />
            <mxPoint x="530" y="670" as="targetPoint" />
          </mxGeometry>
        </mxCell>
        <mxCell id="FroAVm4sZJ1-fi3YX2zG-5" value="" style="endArrow=classic;html=1;rounded=0;" parent="1" edge="1">
          <mxGeometry width="50" height="50" relative="1" as="geometry">
            <mxPoint x="440" y="700" as="sourcePoint" />
            <mxPoint x="380" y="700" as="targetPoint" />
          </mxGeometry>
        </mxCell>
        <mxCell id="FroAVm4sZJ1-fi3YX2zG-7" value="" style="endArrow=classic;html=1;rounded=0;" parent="1" target="FroAVm4sZJ1-fi3YX2zG-22" edge="1">
          <mxGeometry width="50" height="50" relative="1" as="geometry">
            <mxPoint x="670" y="320" as="sourcePoint" />
            <mxPoint x="760" y="240" as="targetPoint" />
          </mxGeometry>
        </mxCell>
        <mxCell id="FroAVm4sZJ1-fi3YX2zG-8" value="" style="endArrow=classic;html=1;rounded=0;" parent="1" edge="1">
          <mxGeometry width="50" height="50" relative="1" as="geometry">
            <mxPoint x="670" y="590" as="sourcePoint" />
            <mxPoint x="670" y="320" as="targetPoint" />
          </mxGeometry>
        </mxCell>
        <mxCell id="FroAVm4sZJ1-fi3YX2zG-9" value="" style="endArrow=classic;html=1;rounded=0;" parent="1" source="FroAVm4sZJ1-fi3YX2zG-26" edge="1">
          <mxGeometry width="50" height="50" relative="1" as="geometry">
            <mxPoint x="710" y="290" as="sourcePoint" />
            <mxPoint x="670" y="590" as="targetPoint" />
          </mxGeometry>
        </mxCell>
        <mxCell id="FroAVm4sZJ1-fi3YX2zG-10" value="" style="endArrow=classic;html=1;rounded=0;" parent="1" source="FroAVm4sZJ1-fi3YX2zG-25" target="FroAVm4sZJ1-fi3YX2zG-26" edge="1">
          <mxGeometry width="50" height="50" relative="1" as="geometry">
            <mxPoint x="710" y="290" as="sourcePoint" />
            <mxPoint x="760" y="240" as="targetPoint" />
          </mxGeometry>
        </mxCell>
        <mxCell id="FroAVm4sZJ1-fi3YX2zG-11" value="" style="endArrow=classic;html=1;rounded=0;" parent="1" source="FroAVm4sZJ1-fi3YX2zG-24" target="FroAVm4sZJ1-fi3YX2zG-25" edge="1">
          <mxGeometry width="50" height="50" relative="1" as="geometry">
            <mxPoint x="710" y="290" as="sourcePoint" />
            <mxPoint x="760" y="240" as="targetPoint" />
          </mxGeometry>
        </mxCell>
        <mxCell id="FroAVm4sZJ1-fi3YX2zG-12" value="" style="endArrow=classic;html=1;rounded=0;" parent="1" source="FroAVm4sZJ1-fi3YX2zG-22" target="FroAVm4sZJ1-fi3YX2zG-24" edge="1">
          <mxGeometry width="50" height="50" relative="1" as="geometry">
            <mxPoint x="710" y="290" as="sourcePoint" />
            <mxPoint x="530" y="390" as="targetPoint" />
          </mxGeometry>
        </mxCell>
        <mxCell id="FroAVm4sZJ1-fi3YX2zG-13" value="" style="endArrow=classic;html=1;rounded=0;exitX=0.5;exitY=1;exitDx=0;exitDy=0;entryX=0.5;entryY=0;entryDx=0;entryDy=0;" parent="1" source="FroAVm4sZJ1-fi3YX2zG-19" target="FroAVm4sZJ1-fi3YX2zG-22" edge="1">
          <mxGeometry width="50" height="50" relative="1" as="geometry">
            <mxPoint x="710" y="290" as="sourcePoint" />
            <mxPoint x="760" y="240" as="targetPoint" />
          </mxGeometry>
        </mxCell>
        <mxCell id="FroAVm4sZJ1-fi3YX2zG-14" value="" style="endArrow=classic;html=1;rounded=0;exitX=0.961;exitY=0.525;exitDx=0;exitDy=0;exitPerimeter=0;" parent="1" source="FroAVm4sZJ1-fi3YX2zG-19" edge="1">
          <mxGeometry width="50" height="50" relative="1" as="geometry">
            <mxPoint x="710" y="290" as="sourcePoint" />
            <mxPoint x="860" y="222" as="targetPoint" />
          </mxGeometry>
        </mxCell>
        <mxCell id="FroAVm4sZJ1-fi3YX2zG-15" value="" style="endArrow=classic;html=1;rounded=0;" parent="1" edge="1">
          <mxGeometry width="50" height="50" relative="1" as="geometry">
            <mxPoint x="380" y="700" as="sourcePoint" />
            <mxPoint x="380" y="220" as="targetPoint" />
          </mxGeometry>
        </mxCell>
        <mxCell id="FroAVm4sZJ1-fi3YX2zG-16" value="" style="endArrow=classic;html=1;rounded=0;" parent="1" source="FroAVm4sZJ1-fi3YX2zG-22" edge="1">
          <mxGeometry width="50" height="50" relative="1" as="geometry">
            <mxPoint x="710" y="290" as="sourcePoint" />
            <mxPoint x="380" y="320" as="targetPoint" />
          </mxGeometry>
        </mxCell>
        <mxCell id="FroAVm4sZJ1-fi3YX2zG-17" value="" style="endArrow=classic;html=1;rounded=0;entryX=0;entryY=0.5;entryDx=0;entryDy=0;" parent="1" target="FroAVm4sZJ1-fi3YX2zG-19" edge="1">
          <mxGeometry width="50" height="50" relative="1" as="geometry">
            <mxPoint x="380" y="220" as="sourcePoint" />
            <mxPoint x="760" y="240" as="targetPoint" />
          </mxGeometry>
        </mxCell>
        <mxCell id="FroAVm4sZJ1-fi3YX2zG-18" value="" style="group" parent="1" vertex="1" connectable="0">
          <mxGeometry x="440" y="190" width="180" height="60" as="geometry" />
        </mxCell>
        <mxCell id="FroAVm4sZJ1-fi3YX2zG-19" value="" style="verticalLabelPosition=bottom;verticalAlign=top;html=1;shape=hexagon;perimeter=hexagonPerimeter2;arcSize=6;size=0.27;" parent="FroAVm4sZJ1-fi3YX2zG-18" vertex="1">
          <mxGeometry width="180" height="60" as="geometry" />
        </mxCell>
        <mxCell id="FroAVm4sZJ1-fi3YX2zG-20" value="col = 0, 5" style="text;html=1;align=center;verticalAlign=middle;resizable=0;points=[];autosize=1;strokeColor=none;fillColor=none;" parent="FroAVm4sZJ1-fi3YX2zG-18" vertex="1">
          <mxGeometry x="55" y="15" width="70" height="30" as="geometry" />
        </mxCell>
        <mxCell id="FroAVm4sZJ1-fi3YX2zG-21" value="" style="group" parent="1" vertex="1" connectable="0">
          <mxGeometry x="440" y="290" width="180" height="60" as="geometry" />
        </mxCell>
        <mxCell id="FroAVm4sZJ1-fi3YX2zG-22" value="" style="verticalLabelPosition=bottom;verticalAlign=top;html=1;shape=hexagon;perimeter=hexagonPerimeter2;arcSize=6;size=0.27;" parent="FroAVm4sZJ1-fi3YX2zG-21" vertex="1">
          <mxGeometry width="180" height="60" as="geometry" />
        </mxCell>
        <mxCell id="FroAVm4sZJ1-fi3YX2zG-23" value="row = 0, 5" style="text;html=1;align=center;verticalAlign=middle;resizable=0;points=[];autosize=1;strokeColor=none;fillColor=none;" parent="FroAVm4sZJ1-fi3YX2zG-21" vertex="1">
          <mxGeometry x="50" y="15" width="80" height="30" as="geometry" />
        </mxCell>
        <mxCell id="FroAVm4sZJ1-fi3YX2zG-24" value="Button cell = cells[row * 5 + col]" style="rounded=0;whiteSpace=wrap;html=1;" parent="1" vertex="1">
          <mxGeometry x="440" y="380" width="180" height="60" as="geometry" />
        </mxCell>
        <mxCell id="FroAVm4sZJ1-fi3YX2zG-25" value="cell.Content?.ToString() == card.ToString()" style="strokeWidth=1;html=1;shape=mxgraph.flowchart.decision;whiteSpace=wrap;" parent="1" vertex="1">
          <mxGeometry x="440" y="470" width="180" height="60" as="geometry" />
        </mxCell>
        <mxCell id="FroAVm4sZJ1-fi3YX2zG-26" value="count++" style="rounded=0;whiteSpace=wrap;html=1;" parent="1" vertex="1">
          <mxGeometry x="440" y="560" width="180" height="60" as="geometry" />
        </mxCell>
        <mxCell id="FroAVm4sZJ1-fi3YX2zG-29" value="" style="endArrow=classic;html=1;rounded=0;" parent="1" target="FroAVm4sZJ1-fi3YX2zG-19" edge="1">
          <mxGeometry width="50" height="50" relative="1" as="geometry">
            <mxPoint x="530" y="170" as="sourcePoint" />
            <mxPoint x="340" y="180" as="targetPoint" />
          </mxGeometry>
        </mxCell>
        <mxCell id="FroAVm4sZJ1-fi3YX2zG-30" value="Button cell1 = cells[i * 5 + i]" style="rounded=0;whiteSpace=wrap;html=1;" parent="1" vertex="1">
          <mxGeometry x="768" y="331" width="180" height="60" as="geometry" />
        </mxCell>
        <mxCell id="FroAVm4sZJ1-fi3YX2zG-31" value="Button cell2 = cells[i * 5 + (4 - i)]" style="rounded=0;whiteSpace=wrap;html=1;" parent="1" vertex="1">
          <mxGeometry x="768" y="421" width="180" height="60" as="geometry" />
        </mxCell>
        <mxCell id="FroAVm4sZJ1-fi3YX2zG-32" value="" style="endArrow=classic;html=1;rounded=0;" parent="1" edge="1">
          <mxGeometry width="50" height="50" relative="1" as="geometry">
            <mxPoint x="728" y="541" as="sourcePoint" />
            <mxPoint x="728" y="681" as="targetPoint" />
          </mxGeometry>
        </mxCell>
        <mxCell id="FroAVm4sZJ1-fi3YX2zG-33" value="" style="endArrow=classic;html=1;rounded=0;" parent="1" edge="1">
          <mxGeometry width="50" height="50" relative="1" as="geometry">
            <mxPoint x="728" y="681" as="sourcePoint" />
            <mxPoint x="858" y="681" as="targetPoint" />
          </mxGeometry>
        </mxCell>
        <mxCell id="FroAVm4sZJ1-fi3YX2zG-34" value="" style="endArrow=classic;html=1;rounded=0;" parent="1" source="FroAVm4sZJ1-fi3YX2zG-36" edge="1">
          <mxGeometry width="50" height="50" relative="1" as="geometry">
            <mxPoint x="1038" y="331" as="sourcePoint" />
            <mxPoint x="728" y="541" as="targetPoint" />
          </mxGeometry>
        </mxCell>
        <mxCell id="FroAVm4sZJ1-fi3YX2zG-35" value="" style="endArrow=classic;html=1;rounded=0;" parent="1" source="FroAVm4sZJ1-fi3YX2zG-36" target="FroAVm4sZJ1-fi3YX2zG-37" edge="1">
          <mxGeometry width="50" height="50" relative="1" as="geometry">
            <mxPoint x="1038" y="331" as="sourcePoint" />
            <mxPoint x="1088" y="281" as="targetPoint" />
          </mxGeometry>
        </mxCell>
        <mxCell id="FroAVm4sZJ1-fi3YX2zG-36" value="cell1.Content?.ToString() == card.ToString()" style="strokeWidth=1;html=1;shape=mxgraph.flowchart.decision;whiteSpace=wrap;" parent="1" vertex="1">
          <mxGeometry x="768" y="511" width="180" height="60" as="geometry" />
        </mxCell>
        <mxCell id="FroAVm4sZJ1-fi3YX2zG-37" value="diagonalCount1++" style="rounded=0;whiteSpace=wrap;html=1;" parent="1" vertex="1">
          <mxGeometry x="768" y="601" width="180" height="60" as="geometry" />
        </mxCell>
        <mxCell id="FroAVm4sZJ1-fi3YX2zG-40" value="" style="endArrow=classic;html=1;rounded=0;" parent="1" source="FroAVm4sZJ1-fi3YX2zG-42" edge="1">
          <mxGeometry width="50" height="50" relative="1" as="geometry">
            <mxPoint x="1038" y="531" as="sourcePoint" />
            <mxPoint x="688" y="741" as="targetPoint" />
          </mxGeometry>
        </mxCell>
        <mxCell id="FroAVm4sZJ1-fi3YX2zG-41" value="" style="endArrow=classic;html=1;rounded=0;" parent="1" source="FroAVm4sZJ1-fi3YX2zG-42" target="FroAVm4sZJ1-fi3YX2zG-43" edge="1">
          <mxGeometry width="50" height="50" relative="1" as="geometry">
            <mxPoint x="1038" y="531" as="sourcePoint" />
            <mxPoint x="1088" y="481" as="targetPoint" />
          </mxGeometry>
        </mxCell>
        <mxCell id="FroAVm4sZJ1-fi3YX2zG-42" value="cell2.Content?.ToString() == card.ToString()" style="strokeWidth=1;html=1;shape=mxgraph.flowchart.decision;whiteSpace=wrap;" parent="1" vertex="1">
          <mxGeometry x="768" y="711" width="180" height="60" as="geometry" />
        </mxCell>
        <mxCell id="FroAVm4sZJ1-fi3YX2zG-43" value="diagonalCount2++" style="rounded=0;whiteSpace=wrap;html=1;" parent="1" vertex="1">
          <mxGeometry x="768" y="801" width="180" height="60" as="geometry" />
        </mxCell>
        <mxCell id="FroAVm4sZJ1-fi3YX2zG-44" value="" style="endArrow=classic;html=1;rounded=0;" parent="1" source="g4nRhd8Vo9tC90K0fsEj-83" target="FroAVm4sZJ1-fi3YX2zG-30" edge="1">
          <mxGeometry width="50" height="50" relative="1" as="geometry">
            <mxPoint x="768" y="451" as="sourcePoint" />
            <mxPoint x="818" y="401" as="targetPoint" />
          </mxGeometry>
        </mxCell>
        <mxCell id="FroAVm4sZJ1-fi3YX2zG-46" value="" style="endArrow=classic;html=1;rounded=0;" parent="1" target="g4nRhd8Vo9tC90K0fsEj-83" edge="1">
          <mxGeometry width="50" height="50" relative="1" as="geometry">
            <mxPoint x="688" y="271" as="sourcePoint" />
            <mxPoint x="848" y="431" as="targetPoint" />
          </mxGeometry>
        </mxCell>
        <mxCell id="FroAVm4sZJ1-fi3YX2zG-47" value="" style="endArrow=classic;html=1;rounded=0;" parent="1" edge="1">
          <mxGeometry width="50" height="50" relative="1" as="geometry">
            <mxPoint x="688" y="831" as="sourcePoint" />
            <mxPoint x="688" y="271" as="targetPoint" />
          </mxGeometry>
        </mxCell>
        <mxCell id="FroAVm4sZJ1-fi3YX2zG-49" value="" style="endArrow=classic;html=1;rounded=0;" parent="1" target="FroAVm4sZJ1-fi3YX2zG-42" edge="1">
          <mxGeometry width="50" height="50" relative="1" as="geometry">
            <mxPoint x="858" y="681" as="sourcePoint" />
            <mxPoint x="848" y="431" as="targetPoint" />
          </mxGeometry>
        </mxCell>
        <mxCell id="FroAVm4sZJ1-fi3YX2zG-50" value="" style="endArrow=classic;html=1;rounded=0;" parent="1" source="FroAVm4sZJ1-fi3YX2zG-31" target="FroAVm4sZJ1-fi3YX2zG-36" edge="1">
          <mxGeometry width="50" height="50" relative="1" as="geometry">
            <mxPoint x="798" y="481" as="sourcePoint" />
            <mxPoint x="848" y="431" as="targetPoint" />
          </mxGeometry>
        </mxCell>
        <mxCell id="FroAVm4sZJ1-fi3YX2zG-51" value="" style="endArrow=classic;html=1;rounded=0;" parent="1" source="FroAVm4sZJ1-fi3YX2zG-30" target="FroAVm4sZJ1-fi3YX2zG-31" edge="1">
          <mxGeometry width="50" height="50" relative="1" as="geometry">
            <mxPoint x="798" y="481" as="sourcePoint" />
            <mxPoint x="848" y="431" as="targetPoint" />
          </mxGeometry>
        </mxCell>
        <mxCell id="FroAVm4sZJ1-fi3YX2zG-52" value="" style="endArrow=classic;html=1;rounded=0;" parent="1" edge="1">
          <mxGeometry width="50" height="50" relative="1" as="geometry">
            <mxPoint x="768" y="830.58" as="sourcePoint" />
            <mxPoint x="688" y="830.58" as="targetPoint" />
          </mxGeometry>
        </mxCell>
        <mxCell id="FroAVm4sZJ1-fi3YX2zG-53" value="" style="endArrow=classic;html=1;rounded=0;" parent="1" source="g4nRhd8Vo9tC90K0fsEj-83" edge="1">
          <mxGeometry width="50" height="50" relative="1" as="geometry">
            <mxPoint x="878" y="461" as="sourcePoint" />
            <mxPoint x="988" y="271" as="targetPoint" />
          </mxGeometry>
        </mxCell>
        <mxCell id="FroAVm4sZJ1-fi3YX2zG-56" value="" style="endArrow=classic;html=1;rounded=0;" parent="1" edge="1">
          <mxGeometry width="50" height="50" relative="1" as="geometry">
            <mxPoint x="1078" y="301" as="sourcePoint" />
            <mxPoint x="1078" y="331" as="targetPoint" />
          </mxGeometry>
        </mxCell>
        <mxCell id="FroAVm4sZJ1-fi3YX2zG-57" value="" style="endArrow=classic;html=1;rounded=0;" parent="1" edge="1">
          <mxGeometry width="50" height="50" relative="1" as="geometry">
            <mxPoint x="1078" y="391" as="sourcePoint" />
            <mxPoint x="1078" y="420" as="targetPoint" />
          </mxGeometry>
        </mxCell>
        <mxCell id="FroAVm4sZJ1-fi3YX2zG-59" value="" style="endArrow=classic;html=1;rounded=0;" parent="1" target="g4nRhd8Vo9tC90K0fsEj-83" edge="1">
          <mxGeometry width="50" height="50" relative="1" as="geometry">
            <mxPoint x="860" y="220" as="sourcePoint" />
            <mxPoint x="830" y="390" as="targetPoint" />
          </mxGeometry>
        </mxCell>
        <mxCell id="FroAVm4sZJ1-fi3YX2zG-60" value="начало" style="strokeWidth=1;html=1;shape=mxgraph.flowchart.start_1;whiteSpace=wrap;" parent="1" vertex="1">
          <mxGeometry x="988" y="511" width="180" height="60" as="geometry" />
        </mxCell>
        <mxCell id="LhA84mynKY-9W0xC-kWv-1" value="points" style="shape=parallelogram;html=1;strokeWidth=1;perimeter=parallelogramPerimeter;whiteSpace=wrap;rounded=1;arcSize=12;size=0.23;" parent="1" vertex="1">
          <mxGeometry x="988" y="421" width="180" height="60" as="geometry" />
        </mxCell>
        <mxCell id="LhA84mynKY-9W0xC-kWv-2" value="" style="endArrow=classic;html=1;rounded=0;" parent="1" source="LhA84mynKY-9W0xC-kWv-1" target="FroAVm4sZJ1-fi3YX2zG-60" edge="1">
          <mxGeometry width="50" height="50" relative="1" as="geometry">
            <mxPoint x="940" y="450" as="sourcePoint" />
            <mxPoint x="990" y="400" as="targetPoint" />
          </mxGeometry>
        </mxCell>
        <mxCell id="YkpwY-k6jwTVRlkkZhTo-1" value="points += CalculatePointsForCount(count)" style="shape=process;whiteSpace=wrap;html=1;backgroundOutline=1;" vertex="1" parent="1">
          <mxGeometry x="120" y="620" width="180" height="60" as="geometry" />
        </mxCell>
        <mxCell id="YkpwY-k6jwTVRlkkZhTo-2" value="points += CalculatePointsForCount(count)" style="shape=process;whiteSpace=wrap;html=1;backgroundOutline=1;" vertex="1" parent="1">
          <mxGeometry x="430" y="670" width="180" height="60" as="geometry" />
        </mxCell>
        <mxCell id="YkpwY-k6jwTVRlkkZhTo-3" value="&amp;nbsp;points += CalculatePointsForCount(diagonalCount2)" style="shape=process;whiteSpace=wrap;html=1;backgroundOutline=1;" vertex="1" parent="1">
          <mxGeometry x="988" y="331" width="180" height="60" as="geometry" />
        </mxCell>
        <mxCell id="YkpwY-k6jwTVRlkkZhTo-4" value="&amp;nbsp;points += CalculatePointsForCount(diagonalCount1)" style="shape=process;whiteSpace=wrap;html=1;backgroundOutline=1;" vertex="1" parent="1">
          <mxGeometry x="988" y="241" width="180" height="60" as="geometry" />
        </mxCell>
      </root>
    </mxGraphModel>
  </diagram>
  <diagram id="DG2XHTz9g2M8SJ3AomSK" name="DisplayCard(int cellIndex)">
    <mxGraphModel dx="399" dy="696" grid="1" gridSize="10" guides="1" tooltips="1" connect="1" arrows="1" fold="1" page="1" pageScale="1" pageWidth="827" pageHeight="1169" math="0" shadow="0">
      <root>
        <mxCell id="0" />
        <mxCell id="1" parent="0" />
        <mxCell id="0K9X7kpnVuPoVqq0vQEC-1" value="" style="group" parent="1" vertex="1" connectable="0">
          <mxGeometry x="59" y="30" width="621" height="1240" as="geometry" />
        </mxCell>
        <mxCell id="zklbcenYRWw5eDIm7Tms-1" value="начало" style="strokeWidth=1;html=1;shape=mxgraph.flowchart.start_1;whiteSpace=wrap;" parent="0K9X7kpnVuPoVqq0vQEC-1" vertex="1">
          <mxGeometry x="61" y="20" width="180" height="60" as="geometry" />
        </mxCell>
        <mxCell id="zklbcenYRWw5eDIm7Tms-2" value="" style="strokeWidth=1;html=1;shape=mxgraph.flowchart.annotation_2;align=left;labelPosition=right;pointerEvents=1;" parent="0K9X7kpnVuPoVqq0vQEC-1" vertex="1">
          <mxGeometry x="321" width="50" height="100" as="geometry" />
        </mxCell>
        <mxCell id="zklbcenYRWw5eDIm7Tms-3" value="" style="endArrow=none;dashed=1;html=1;dashPattern=1 3;strokeWidth=2;rounded=0;entryX=0;entryY=0.5;entryDx=0;entryDy=0;entryPerimeter=0;" parent="0K9X7kpnVuPoVqq0vQEC-1" source="zklbcenYRWw5eDIm7Tms-1" target="zklbcenYRWw5eDIm7Tms-2" edge="1">
          <mxGeometry width="50" height="50" relative="1" as="geometry">
            <mxPoint x="191" y="270" as="sourcePoint" />
            <mxPoint x="241" y="220" as="targetPoint" />
          </mxGeometry>
        </mxCell>
        <mxCell id="zklbcenYRWw5eDIm7Tms-4" value="&lt;div&gt;DisplayCard(int cellIndex)&lt;/div&gt;" style="text;html=1;align=center;verticalAlign=middle;resizable=0;points=[];autosize=1;strokeColor=none;fillColor=none;" parent="0K9X7kpnVuPoVqq0vQEC-1" vertex="1">
          <mxGeometry x="371" y="35" width="160" height="30" as="geometry" />
        </mxCell>
        <mxCell id="zklbcenYRWw5eDIm7Tms-5" value="isPlayerTurn" style="strokeWidth=1;html=1;shape=mxgraph.flowchart.decision;whiteSpace=wrap;" parent="0K9X7kpnVuPoVqq0vQEC-1" vertex="1">
          <mxGeometry x="61" y="110" width="180" height="60" as="geometry" />
        </mxCell>
        <mxCell id="zklbcenYRWw5eDIm7Tms-6" value="Button cell = playerCells[cellIndex]" style="rounded=0;whiteSpace=wrap;html=1;" parent="0K9X7kpnVuPoVqq0vQEC-1" vertex="1">
          <mxGeometry x="61" y="200" width="180" height="60" as="geometry" />
        </mxCell>
        <mxCell id="zklbcenYRWw5eDIm7Tms-9" value="" style="endArrow=classic;html=1;rounded=0;" parent="0K9X7kpnVuPoVqq0vQEC-1" source="zklbcenYRWw5eDIm7Tms-5" target="zklbcenYRWw5eDIm7Tms-6" edge="1">
          <mxGeometry width="50" height="50" relative="1" as="geometry">
            <mxPoint x="141" y="240" as="sourcePoint" />
            <mxPoint x="191" y="190" as="targetPoint" />
          </mxGeometry>
        </mxCell>
        <mxCell id="zklbcenYRWw5eDIm7Tms-10" value="" style="endArrow=classic;html=1;rounded=0;" parent="0K9X7kpnVuPoVqq0vQEC-1" source="zklbcenYRWw5eDIm7Tms-1" target="zklbcenYRWw5eDIm7Tms-5" edge="1">
          <mxGeometry width="50" height="50" relative="1" as="geometry">
            <mxPoint x="141" y="240" as="sourcePoint" />
            <mxPoint x="191" y="190" as="targetPoint" />
          </mxGeometry>
        </mxCell>
        <mxCell id="zklbcenYRWw5eDIm7Tms-11" value="да" style="text;html=1;align=center;verticalAlign=middle;resizable=0;points=[];autosize=1;strokeColor=none;fillColor=none;" parent="0K9X7kpnVuPoVqq0vQEC-1" vertex="1">
          <mxGeometry x="151" y="158" width="40" height="30" as="geometry" />
        </mxCell>
        <mxCell id="zklbcenYRWw5eDIm7Tms-12" value="нет" style="text;html=1;align=center;verticalAlign=middle;resizable=0;points=[];autosize=1;strokeColor=none;fillColor=none;" parent="0K9X7kpnVuPoVqq0vQEC-1" vertex="1">
          <mxGeometry x="31" y="150" width="40" height="30" as="geometry" />
        </mxCell>
        <mxCell id="zklbcenYRWw5eDIm7Tms-13" value="" style="endArrow=classic;html=1;rounded=0;" parent="0K9X7kpnVuPoVqq0vQEC-1" source="zklbcenYRWw5eDIm7Tms-5" edge="1">
          <mxGeometry width="50" height="50" relative="1" as="geometry">
            <mxPoint x="141" y="240" as="sourcePoint" />
            <mxPoint y="140" as="targetPoint" />
          </mxGeometry>
        </mxCell>
        <mxCell id="zklbcenYRWw5eDIm7Tms-14" value="" style="endArrow=classic;html=1;rounded=0;" parent="0K9X7kpnVuPoVqq0vQEC-1" edge="1">
          <mxGeometry width="50" height="50" relative="1" as="geometry">
            <mxPoint x="1" y="140" as="sourcePoint" />
            <mxPoint x="1" y="930" as="targetPoint" />
          </mxGeometry>
        </mxCell>
        <mxCell id="zklbcenYRWw5eDIm7Tms-16" value="" style="endArrow=classic;html=1;rounded=0;" parent="0K9X7kpnVuPoVqq0vQEC-1" source="zklbcenYRWw5eDIm7Tms-6" edge="1">
          <mxGeometry width="50" height="50" relative="1" as="geometry">
            <mxPoint x="11" y="490" as="sourcePoint" />
            <mxPoint x="151" y="290" as="targetPoint" />
          </mxGeometry>
        </mxCell>
        <mxCell id="zklbcenYRWw5eDIm7Tms-26" value="cell.Content == null" style="strokeWidth=1;html=1;shape=mxgraph.flowchart.decision;whiteSpace=wrap;" parent="0K9X7kpnVuPoVqq0vQEC-1" vertex="1">
          <mxGeometry x="61" y="290" width="180" height="60" as="geometry" />
        </mxCell>
        <mxCell id="zklbcenYRWw5eDIm7Tms-27" value="cell.Content = currentCard.ToString()" style="rounded=0;whiteSpace=wrap;html=1;" parent="0K9X7kpnVuPoVqq0vQEC-1" vertex="1">
          <mxGeometry x="61" y="380" width="180" height="60" as="geometry" />
        </mxCell>
        <mxCell id="zklbcenYRWw5eDIm7Tms-28" value="cell.IsEnabled = false" style="rounded=0;whiteSpace=wrap;html=1;" parent="0K9X7kpnVuPoVqq0vQEC-1" vertex="1">
          <mxGeometry x="61" y="470" width="180" height="60" as="geometry" />
        </mxCell>
        <mxCell id="zklbcenYRWw5eDIm7Tms-29" value="isPlayerTurn = false" style="rounded=0;whiteSpace=wrap;html=1;" parent="0K9X7kpnVuPoVqq0vQEC-1" vertex="1">
          <mxGeometry x="61" y="740" width="180" height="60" as="geometry" />
        </mxCell>
        <mxCell id="zklbcenYRWw5eDIm7Tms-30" value="playerScoreLabel.Content = &quot;Очки игрока: &quot; + playerScore" style="rounded=0;whiteSpace=wrap;html=1;" parent="0K9X7kpnVuPoVqq0vQEC-1" vertex="1">
          <mxGeometry x="61" y="650" width="180" height="60" as="geometry" />
        </mxCell>
        <mxCell id="8cCdJ5hmnd7GlZ-WBP2K-1" value="playerScore += CalculatePoints(playerCells, currentCard)" style="shape=process;whiteSpace=wrap;html=1;backgroundOutline=1;align=center;fontFamily=Helvetica;" parent="0K9X7kpnVuPoVqq0vQEC-1" vertex="1">
          <mxGeometry x="61" y="560" width="180" height="60" as="geometry" />
        </mxCell>
        <mxCell id="8cCdJ5hmnd7GlZ-WBP2K-2" value="BotMove()" style="shape=process;whiteSpace=wrap;html=1;backgroundOutline=1;align=center;fontFamily=Helvetica;" parent="0K9X7kpnVuPoVqq0vQEC-1" vertex="1">
          <mxGeometry x="61" y="830" width="180" height="60" as="geometry" />
        </mxCell>
        <mxCell id="8cCdJ5hmnd7GlZ-WBP2K-3" value="да" style="text;html=1;align=center;verticalAlign=middle;resizable=0;points=[];autosize=1;strokeColor=none;fillColor=none;" parent="0K9X7kpnVuPoVqq0vQEC-1" vertex="1">
          <mxGeometry x="151" y="340" width="40" height="30" as="geometry" />
        </mxCell>
        <mxCell id="8cCdJ5hmnd7GlZ-WBP2K-4" value="нет" style="text;html=1;align=center;verticalAlign=middle;resizable=0;points=[];autosize=1;strokeColor=none;fillColor=none;" parent="0K9X7kpnVuPoVqq0vQEC-1" vertex="1">
          <mxGeometry x="31" y="330" width="40" height="30" as="geometry" />
        </mxCell>
        <mxCell id="8cCdJ5hmnd7GlZ-WBP2K-5" value="" style="endArrow=classic;html=1;rounded=0;" parent="0K9X7kpnVuPoVqq0vQEC-1" edge="1">
          <mxGeometry width="50" height="50" relative="1" as="geometry">
            <mxPoint x="61" y="319.5" as="sourcePoint" />
            <mxPoint y="319.5" as="targetPoint" />
          </mxGeometry>
        </mxCell>
        <mxCell id="8cCdJ5hmnd7GlZ-WBP2K-6" value="" style="endArrow=classic;html=1;rounded=0;" parent="0K9X7kpnVuPoVqq0vQEC-1" source="zklbcenYRWw5eDIm7Tms-26" target="zklbcenYRWw5eDIm7Tms-27" edge="1">
          <mxGeometry width="50" height="50" relative="1" as="geometry">
            <mxPoint x="161" y="270" as="sourcePoint" />
            <mxPoint x="161" y="300" as="targetPoint" />
          </mxGeometry>
        </mxCell>
        <mxCell id="8cCdJ5hmnd7GlZ-WBP2K-7" value="" style="endArrow=classic;html=1;rounded=0;" parent="0K9X7kpnVuPoVqq0vQEC-1" source="8cCdJ5hmnd7GlZ-WBP2K-1" target="zklbcenYRWw5eDIm7Tms-30" edge="1">
          <mxGeometry width="50" height="50" relative="1" as="geometry">
            <mxPoint x="321" y="440" as="sourcePoint" />
            <mxPoint x="521" y="700" as="targetPoint" />
          </mxGeometry>
        </mxCell>
        <mxCell id="8cCdJ5hmnd7GlZ-WBP2K-8" value="" style="endArrow=classic;html=1;rounded=0;" parent="0K9X7kpnVuPoVqq0vQEC-1" source="zklbcenYRWw5eDIm7Tms-28" target="8cCdJ5hmnd7GlZ-WBP2K-1" edge="1">
          <mxGeometry width="50" height="50" relative="1" as="geometry">
            <mxPoint x="331" y="450" as="sourcePoint" />
            <mxPoint x="531" y="710" as="targetPoint" />
          </mxGeometry>
        </mxCell>
        <mxCell id="8cCdJ5hmnd7GlZ-WBP2K-9" value="" style="endArrow=classic;html=1;rounded=0;" parent="0K9X7kpnVuPoVqq0vQEC-1" source="8cCdJ5hmnd7GlZ-WBP2K-2" edge="1">
          <mxGeometry width="50" height="50" relative="1" as="geometry">
            <mxPoint x="341" y="460" as="sourcePoint" />
            <mxPoint x="321" y="860" as="targetPoint" />
          </mxGeometry>
        </mxCell>
        <mxCell id="8cCdJ5hmnd7GlZ-WBP2K-10" value="" style="endArrow=classic;html=1;rounded=0;" parent="0K9X7kpnVuPoVqq0vQEC-1" source="zklbcenYRWw5eDIm7Tms-29" target="8cCdJ5hmnd7GlZ-WBP2K-2" edge="1">
          <mxGeometry width="50" height="50" relative="1" as="geometry">
            <mxPoint x="351" y="470" as="sourcePoint" />
            <mxPoint x="551" y="730" as="targetPoint" />
          </mxGeometry>
        </mxCell>
        <mxCell id="8cCdJ5hmnd7GlZ-WBP2K-11" value="" style="endArrow=classic;html=1;rounded=0;" parent="0K9X7kpnVuPoVqq0vQEC-1" source="zklbcenYRWw5eDIm7Tms-30" target="zklbcenYRWw5eDIm7Tms-29" edge="1">
          <mxGeometry width="50" height="50" relative="1" as="geometry">
            <mxPoint x="361" y="480" as="sourcePoint" />
            <mxPoint x="561" y="740" as="targetPoint" />
          </mxGeometry>
        </mxCell>
        <mxCell id="8cCdJ5hmnd7GlZ-WBP2K-12" value="" style="endArrow=classic;html=1;rounded=0;" parent="0K9X7kpnVuPoVqq0vQEC-1" source="zklbcenYRWw5eDIm7Tms-27" target="zklbcenYRWw5eDIm7Tms-28" edge="1">
          <mxGeometry width="50" height="50" relative="1" as="geometry">
            <mxPoint x="371" y="490" as="sourcePoint" />
            <mxPoint x="571" y="750" as="targetPoint" />
          </mxGeometry>
        </mxCell>
        <mxCell id="8cCdJ5hmnd7GlZ-WBP2K-13" value="" style="endArrow=classic;html=1;rounded=0;" parent="0K9X7kpnVuPoVqq0vQEC-1" edge="1">
          <mxGeometry width="50" height="50" relative="1" as="geometry">
            <mxPoint x="1" y="930" as="sourcePoint" />
            <mxPoint x="151" y="930" as="targetPoint" />
          </mxGeometry>
        </mxCell>
        <mxCell id="8cCdJ5hmnd7GlZ-WBP2K-14" value="" style="endArrow=classic;html=1;rounded=0;" parent="0K9X7kpnVuPoVqq0vQEC-1" edge="1">
          <mxGeometry width="50" height="50" relative="1" as="geometry">
            <mxPoint x="151" y="930" as="sourcePoint" />
            <mxPoint x="151" y="980" as="targetPoint" />
          </mxGeometry>
        </mxCell>
        <mxCell id="8cCdJ5hmnd7GlZ-WBP2K-15" value="FinishGame()" style="shape=process;whiteSpace=wrap;html=1;backgroundOutline=1;align=center;fontFamily=Helvetica;" parent="0K9X7kpnVuPoVqq0vQEC-1" vertex="1">
          <mxGeometry x="61" y="1070" width="180" height="60" as="geometry" />
        </mxCell>
        <mxCell id="8cCdJ5hmnd7GlZ-WBP2K-16" value="IsBoardFull()" style="strokeWidth=1;html=1;shape=mxgraph.flowchart.decision;whiteSpace=wrap;" parent="0K9X7kpnVuPoVqq0vQEC-1" vertex="1">
          <mxGeometry x="61" y="980" width="180" height="60" as="geometry" />
        </mxCell>
        <mxCell id="8cCdJ5hmnd7GlZ-WBP2K-17" value="да" style="text;html=1;align=center;verticalAlign=middle;resizable=0;points=[];autosize=1;strokeColor=none;fillColor=none;" parent="0K9X7kpnVuPoVqq0vQEC-1" vertex="1">
          <mxGeometry x="151" y="1040" width="40" height="30" as="geometry" />
        </mxCell>
        <mxCell id="8cCdJ5hmnd7GlZ-WBP2K-18" value="нет" style="text;html=1;align=center;verticalAlign=middle;resizable=0;points=[];autosize=1;strokeColor=none;fillColor=none;" parent="0K9X7kpnVuPoVqq0vQEC-1" vertex="1">
          <mxGeometry x="31" y="1020" width="40" height="30" as="geometry" />
        </mxCell>
        <mxCell id="8cCdJ5hmnd7GlZ-WBP2K-19" value="" style="endArrow=classic;html=1;rounded=0;" parent="0K9X7kpnVuPoVqq0vQEC-1" source="8cCdJ5hmnd7GlZ-WBP2K-16" edge="1">
          <mxGeometry width="50" height="50" relative="1" as="geometry">
            <mxPoint x="71" y="329.5" as="sourcePoint" />
            <mxPoint x="1" y="1012.8571428571429" as="targetPoint" />
          </mxGeometry>
        </mxCell>
        <mxCell id="8cCdJ5hmnd7GlZ-WBP2K-20" value="" style="endArrow=classic;html=1;rounded=0;" parent="0K9X7kpnVuPoVqq0vQEC-1" edge="1">
          <mxGeometry width="50" height="50" relative="1" as="geometry">
            <mxPoint x="1" y="1010" as="sourcePoint" />
            <mxPoint x="1" y="1160" as="targetPoint" />
          </mxGeometry>
        </mxCell>
        <mxCell id="8cCdJ5hmnd7GlZ-WBP2K-21" value="" style="endArrow=classic;html=1;rounded=0;" parent="0K9X7kpnVuPoVqq0vQEC-1" source="8cCdJ5hmnd7GlZ-WBP2K-16" target="8cCdJ5hmnd7GlZ-WBP2K-15" edge="1">
          <mxGeometry width="50" height="50" relative="1" as="geometry">
            <mxPoint x="251" y="870" as="sourcePoint" />
            <mxPoint x="341" y="870" as="targetPoint" />
          </mxGeometry>
        </mxCell>
        <mxCell id="8cCdJ5hmnd7GlZ-WBP2K-22" value="" style="endArrow=classic;html=1;rounded=0;" parent="0K9X7kpnVuPoVqq0vQEC-1" edge="1">
          <mxGeometry width="50" height="50" relative="1" as="geometry">
            <mxPoint x="1" y="1160" as="sourcePoint" />
            <mxPoint x="151" y="1160" as="targetPoint" />
          </mxGeometry>
        </mxCell>
        <mxCell id="8cCdJ5hmnd7GlZ-WBP2K-23" value="конец" style="strokeWidth=1;html=1;shape=mxgraph.flowchart.start_1;whiteSpace=wrap;" parent="0K9X7kpnVuPoVqq0vQEC-1" vertex="1">
          <mxGeometry x="61" y="1180" width="180" height="60" as="geometry" />
        </mxCell>
        <mxCell id="8cCdJ5hmnd7GlZ-WBP2K-24" value="" style="endArrow=classic;html=1;rounded=0;" parent="0K9X7kpnVuPoVqq0vQEC-1" source="8cCdJ5hmnd7GlZ-WBP2K-15" target="8cCdJ5hmnd7GlZ-WBP2K-23" edge="1">
          <mxGeometry width="50" height="50" relative="1" as="geometry">
            <mxPoint x="251" y="870" as="sourcePoint" />
            <mxPoint x="341" y="870" as="targetPoint" />
          </mxGeometry>
        </mxCell>
        <mxCell id="8cCdJ5hmnd7GlZ-WBP2K-25" value="" style="endArrow=classic;html=1;rounded=0;" parent="0K9X7kpnVuPoVqq0vQEC-1" edge="1">
          <mxGeometry width="50" height="50" relative="1" as="geometry">
            <mxPoint x="321" y="860" as="sourcePoint" />
            <mxPoint x="321" y="1160" as="targetPoint" />
          </mxGeometry>
        </mxCell>
        <mxCell id="8cCdJ5hmnd7GlZ-WBP2K-26" value="" style="endArrow=classic;html=1;rounded=0;" parent="0K9X7kpnVuPoVqq0vQEC-1" edge="1">
          <mxGeometry width="50" height="50" relative="1" as="geometry">
            <mxPoint x="321" y="1160" as="sourcePoint" />
            <mxPoint x="151" y="1160" as="targetPoint" />
          </mxGeometry>
        </mxCell>
        <mxCell id="F4GqUy1qufNsq-JzgwTt-1" value="" style="strokeWidth=1;html=1;shape=mxgraph.flowchart.annotation_2;align=left;labelPosition=right;pointerEvents=1;" parent="0K9X7kpnVuPoVqq0vQEC-1" vertex="1">
          <mxGeometry x="391" y="960" width="50" height="100" as="geometry" />
        </mxCell>
        <mxCell id="F4GqUy1qufNsq-JzgwTt-2" value="" style="endArrow=none;dashed=1;html=1;dashPattern=1 3;strokeWidth=2;rounded=0;entryX=0;entryY=0.5;entryDx=0;entryDy=0;entryPerimeter=0;" parent="0K9X7kpnVuPoVqq0vQEC-1" source="8cCdJ5hmnd7GlZ-WBP2K-16" target="F4GqUy1qufNsq-JzgwTt-1" edge="1">
          <mxGeometry width="50" height="50" relative="1" as="geometry">
            <mxPoint x="311" y="1010" as="sourcePoint" />
            <mxPoint x="311" y="1180" as="targetPoint" />
          </mxGeometry>
        </mxCell>
        <mxCell id="F4GqUy1qufNsq-JzgwTt-3" value="&lt;div&gt;IsBoardFull()&lt;/div&gt;" style="shape=process;whiteSpace=wrap;html=1;backgroundOutline=1;align=center;fontFamily=Helvetica;" parent="0K9X7kpnVuPoVqq0vQEC-1" vertex="1">
          <mxGeometry x="441" y="980" width="180" height="60" as="geometry" />
        </mxCell>
      </root>
    </mxGraphModel>
  </diagram>
  <diagram id="H5Wsrzeggf82cX_etyvi" name="GenerateNextCard()">
    <mxGraphModel dx="1360" dy="705" grid="1" gridSize="10" guides="1" tooltips="1" connect="1" arrows="1" fold="1" page="1" pageScale="1" pageWidth="827" pageHeight="1169" math="0" shadow="0">
      <root>
        <mxCell id="0" />
        <mxCell id="1" parent="0" />
        <mxCell id="D4oFDJcPVx0-fn8micRU-1" value="" style="group" parent="1" vertex="1" connectable="0">
          <mxGeometry x="59" y="30" width="501" height="690" as="geometry" />
        </mxCell>
        <mxCell id="Rihh7jHL_8-JUh97b2cq-1" value="начало" style="strokeWidth=1;html=1;shape=mxgraph.flowchart.start_1;whiteSpace=wrap;" parent="D4oFDJcPVx0-fn8micRU-1" vertex="1">
          <mxGeometry x="61" y="20" width="180" height="60" as="geometry" />
        </mxCell>
        <mxCell id="R8uH1GbzqJlZsckrsqzC-1" value="" style="strokeWidth=1;html=1;shape=mxgraph.flowchart.annotation_2;align=left;labelPosition=right;pointerEvents=1;" parent="D4oFDJcPVx0-fn8micRU-1" vertex="1">
          <mxGeometry x="321" width="50" height="100" as="geometry" />
        </mxCell>
        <mxCell id="R8uH1GbzqJlZsckrsqzC-2" value="" style="endArrow=none;dashed=1;html=1;dashPattern=1 3;strokeWidth=2;rounded=0;entryX=0;entryY=0.5;entryDx=0;entryDy=0;entryPerimeter=0;" parent="D4oFDJcPVx0-fn8micRU-1" source="Rihh7jHL_8-JUh97b2cq-1" target="R8uH1GbzqJlZsckrsqzC-1" edge="1">
          <mxGeometry width="50" height="50" relative="1" as="geometry">
            <mxPoint x="191" y="270" as="sourcePoint" />
            <mxPoint x="241" y="220" as="targetPoint" />
          </mxGeometry>
        </mxCell>
        <mxCell id="R8uH1GbzqJlZsckrsqzC-5" value="GenerateNextCard()" style="text;html=1;align=center;verticalAlign=middle;resizable=0;points=[];autosize=1;strokeColor=none;fillColor=none;" parent="D4oFDJcPVx0-fn8micRU-1" vertex="1">
          <mxGeometry x="371" y="35" width="130" height="30" as="geometry" />
        </mxCell>
        <mxCell id="8N6y0Z0a6sudZwRKoZjd-1" value="deck.Any()" style="strokeWidth=1;html=1;shape=mxgraph.flowchart.decision;whiteSpace=wrap;" parent="D4oFDJcPVx0-fn8micRU-1" vertex="1">
          <mxGeometry x="61" y="110" width="180" height="60" as="geometry" />
        </mxCell>
        <mxCell id="E7F0WVrYXQKwKaeAs7aR-1" value="currentCard = deck.First()" style="rounded=0;whiteSpace=wrap;html=1;" parent="D4oFDJcPVx0-fn8micRU-1" vertex="1">
          <mxGeometry x="61" y="200" width="180" height="60" as="geometry" />
        </mxCell>
        <mxCell id="E7F0WVrYXQKwKaeAs7aR-2" value="deck.RemoveAt(0)" style="rounded=0;whiteSpace=wrap;html=1;" parent="D4oFDJcPVx0-fn8micRU-1" vertex="1">
          <mxGeometry x="61" y="290" width="180" height="60" as="geometry" />
        </mxCell>
        <mxCell id="E7F0WVrYXQKwKaeAs7aR-3" value="deckLabel.Content = &quot;Карта: &quot; + currentCard" style="rounded=0;whiteSpace=wrap;html=1;" parent="D4oFDJcPVx0-fn8micRU-1" vertex="1">
          <mxGeometry x="61" y="380" width="180" height="60" as="geometry" />
        </mxCell>
        <mxCell id="E7F0WVrYXQKwKaeAs7aR-4" value="" style="endArrow=classic;html=1;rounded=0;" parent="D4oFDJcPVx0-fn8micRU-1" source="8N6y0Z0a6sudZwRKoZjd-1" target="E7F0WVrYXQKwKaeAs7aR-1" edge="1">
          <mxGeometry width="50" height="50" relative="1" as="geometry">
            <mxPoint x="141" y="240" as="sourcePoint" />
            <mxPoint x="191" y="190" as="targetPoint" />
          </mxGeometry>
        </mxCell>
        <mxCell id="E7F0WVrYXQKwKaeAs7aR-5" value="" style="endArrow=classic;html=1;rounded=0;" parent="D4oFDJcPVx0-fn8micRU-1" source="Rihh7jHL_8-JUh97b2cq-1" target="8N6y0Z0a6sudZwRKoZjd-1" edge="1">
          <mxGeometry width="50" height="50" relative="1" as="geometry">
            <mxPoint x="141" y="240" as="sourcePoint" />
            <mxPoint x="191" y="190" as="targetPoint" />
          </mxGeometry>
        </mxCell>
        <mxCell id="E7F0WVrYXQKwKaeAs7aR-6" value="да" style="text;html=1;align=center;verticalAlign=middle;resizable=0;points=[];autosize=1;strokeColor=none;fillColor=none;" parent="D4oFDJcPVx0-fn8micRU-1" vertex="1">
          <mxGeometry x="151" y="158" width="40" height="30" as="geometry" />
        </mxCell>
        <mxCell id="E7F0WVrYXQKwKaeAs7aR-7" value="нет" style="text;html=1;align=center;verticalAlign=middle;resizable=0;points=[];autosize=1;strokeColor=none;fillColor=none;" parent="D4oFDJcPVx0-fn8micRU-1" vertex="1">
          <mxGeometry x="31" y="150" width="40" height="30" as="geometry" />
        </mxCell>
        <mxCell id="E7F0WVrYXQKwKaeAs7aR-8" value="" style="endArrow=classic;html=1;rounded=0;" parent="D4oFDJcPVx0-fn8micRU-1" source="8N6y0Z0a6sudZwRKoZjd-1" edge="1">
          <mxGeometry width="50" height="50" relative="1" as="geometry">
            <mxPoint x="141" y="240" as="sourcePoint" />
            <mxPoint y="140" as="targetPoint" />
          </mxGeometry>
        </mxCell>
        <mxCell id="E7F0WVrYXQKwKaeAs7aR-9" value="" style="endArrow=classic;html=1;rounded=0;" parent="D4oFDJcPVx0-fn8micRU-1" edge="1">
          <mxGeometry width="50" height="50" relative="1" as="geometry">
            <mxPoint x="1" y="140" as="sourcePoint" />
            <mxPoint x="1" y="490" as="targetPoint" />
          </mxGeometry>
        </mxCell>
        <mxCell id="E7F0WVrYXQKwKaeAs7aR-10" value="" style="endArrow=classic;html=1;rounded=0;" parent="D4oFDJcPVx0-fn8micRU-1" edge="1">
          <mxGeometry width="50" height="50" relative="1" as="geometry">
            <mxPoint y="490" as="sourcePoint" />
            <mxPoint x="150" y="490" as="targetPoint" />
          </mxGeometry>
        </mxCell>
        <mxCell id="E7F0WVrYXQKwKaeAs7aR-11" value="" style="endArrow=classic;html=1;rounded=0;" parent="D4oFDJcPVx0-fn8micRU-1" source="E7F0WVrYXQKwKaeAs7aR-1" target="E7F0WVrYXQKwKaeAs7aR-2" edge="1">
          <mxGeometry width="50" height="50" relative="1" as="geometry">
            <mxPoint x="11" y="490" as="sourcePoint" />
            <mxPoint x="171" y="490" as="targetPoint" />
          </mxGeometry>
        </mxCell>
        <mxCell id="E7F0WVrYXQKwKaeAs7aR-13" style="edgeStyle=orthogonalEdgeStyle;rounded=0;orthogonalLoop=1;jettySize=auto;html=1;" parent="D4oFDJcPVx0-fn8micRU-1" source="E7F0WVrYXQKwKaeAs7aR-2" target="E7F0WVrYXQKwKaeAs7aR-3" edge="1">
          <mxGeometry relative="1" as="geometry" />
        </mxCell>
        <mxCell id="E7F0WVrYXQKwKaeAs7aR-14" value="" style="endArrow=classic;html=1;rounded=0;" parent="D4oFDJcPVx0-fn8micRU-1" target="fEr4X0PtXq3vTm6YzGLG-1" edge="1">
          <mxGeometry width="50" height="50" relative="1" as="geometry">
            <mxPoint x="150" y="490" as="sourcePoint" />
            <mxPoint x="150" y="520" as="targetPoint" />
          </mxGeometry>
        </mxCell>
        <mxCell id="fEr4X0PtXq3vTm6YzGLG-1" value="&lt;span style=&quot;font-size: 14px; white-space-collapse: preserve;&quot;&gt;FinishGame()&lt;/span&gt;" style="shape=process;whiteSpace=wrap;html=1;backgroundOutline=1;align=center;fontFamily=Helvetica;" parent="D4oFDJcPVx0-fn8micRU-1" vertex="1">
          <mxGeometry x="61" y="520" width="180" height="60" as="geometry" />
        </mxCell>
        <mxCell id="fEr4X0PtXq3vTm6YzGLG-2" value="" style="endArrow=classic;html=1;rounded=0;" parent="D4oFDJcPVx0-fn8micRU-1" source="fEr4X0PtXq3vTm6YzGLG-1" target="fEr4X0PtXq3vTm6YzGLG-3" edge="1">
          <mxGeometry width="50" height="50" relative="1" as="geometry">
            <mxPoint x="10" y="500" as="sourcePoint" />
            <mxPoint x="151" y="620" as="targetPoint" />
          </mxGeometry>
        </mxCell>
        <mxCell id="fEr4X0PtXq3vTm6YzGLG-3" value="конец" style="strokeWidth=1;html=1;shape=mxgraph.flowchart.start_1;whiteSpace=wrap;" parent="D4oFDJcPVx0-fn8micRU-1" vertex="1">
          <mxGeometry x="61" y="630" width="180" height="60" as="geometry" />
        </mxCell>
        <mxCell id="fEr4X0PtXq3vTm6YzGLG-4" value="" style="endArrow=classic;html=1;rounded=0;exitX=0.5;exitY=1;exitDx=0;exitDy=0;" parent="D4oFDJcPVx0-fn8micRU-1" source="E7F0WVrYXQKwKaeAs7aR-3" edge="1">
          <mxGeometry width="50" height="50" relative="1" as="geometry">
            <mxPoint x="10" y="480" as="sourcePoint" />
            <mxPoint x="151" y="470" as="targetPoint" />
          </mxGeometry>
        </mxCell>
        <mxCell id="fEr4X0PtXq3vTm6YzGLG-5" value="" style="endArrow=classic;html=1;rounded=0;" parent="D4oFDJcPVx0-fn8micRU-1" edge="1">
          <mxGeometry width="50" height="50" relative="1" as="geometry">
            <mxPoint x="151" y="470" as="sourcePoint" />
            <mxPoint x="301" y="470" as="targetPoint" />
          </mxGeometry>
        </mxCell>
        <mxCell id="fEr4X0PtXq3vTm6YzGLG-6" value="" style="endArrow=classic;html=1;rounded=0;" parent="D4oFDJcPVx0-fn8micRU-1" edge="1">
          <mxGeometry width="50" height="50" relative="1" as="geometry">
            <mxPoint x="301" y="470" as="sourcePoint" />
            <mxPoint x="301" y="610" as="targetPoint" />
          </mxGeometry>
        </mxCell>
        <mxCell id="fEr4X0PtXq3vTm6YzGLG-7" value="" style="endArrow=classic;html=1;rounded=0;" parent="D4oFDJcPVx0-fn8micRU-1" edge="1">
          <mxGeometry width="50" height="50" relative="1" as="geometry">
            <mxPoint x="301" y="600" as="sourcePoint" />
            <mxPoint x="151" y="600" as="targetPoint" />
          </mxGeometry>
        </mxCell>
      </root>
    </mxGraphModel>
  </diagram>
  <diagram id="KRjl5u1eze7M8AJYaPxb" name="BotMove()">
    <mxGraphModel dx="732" dy="696" grid="1" gridSize="10" guides="1" tooltips="1" connect="1" arrows="1" fold="1" page="1" pageScale="1" pageWidth="827" pageHeight="1169" math="0" shadow="0">
      <root>
        <mxCell id="0" />
        <mxCell id="1" parent="0" />
        <mxCell id="mhkxPniMl4drfU7qb30M-1" value="" style="group" parent="1" vertex="1" connectable="0">
          <mxGeometry x="58.88" y="30" width="476.12" height="1149" as="geometry" />
        </mxCell>
        <mxCell id="r4KgNFLcjgPJ8Ppvu8Oc-44" value="" style="edgeStyle=orthogonalEdgeStyle;rounded=0;orthogonalLoop=1;jettySize=auto;html=1;" parent="mhkxPniMl4drfU7qb30M-1" source="U7YWyGFxLEYhV9qmMjid-1" target="r4KgNFLcjgPJ8Ppvu8Oc-43" edge="1">
          <mxGeometry relative="1" as="geometry" />
        </mxCell>
        <mxCell id="U7YWyGFxLEYhV9qmMjid-1" value="начало" style="strokeWidth=1;html=1;shape=mxgraph.flowchart.start_1;whiteSpace=wrap;" parent="mhkxPniMl4drfU7qb30M-1" vertex="1">
          <mxGeometry x="61.12" y="20" width="180" height="60" as="geometry" />
        </mxCell>
        <mxCell id="U7YWyGFxLEYhV9qmMjid-2" value="" style="strokeWidth=1;html=1;shape=mxgraph.flowchart.annotation_2;align=left;labelPosition=right;pointerEvents=1;" parent="mhkxPniMl4drfU7qb30M-1" vertex="1">
          <mxGeometry x="321.12" width="50" height="100" as="geometry" />
        </mxCell>
        <mxCell id="U7YWyGFxLEYhV9qmMjid-3" value="" style="endArrow=none;dashed=1;html=1;dashPattern=1 3;strokeWidth=2;rounded=0;entryX=0;entryY=0.5;entryDx=0;entryDy=0;entryPerimeter=0;" parent="mhkxPniMl4drfU7qb30M-1" source="U7YWyGFxLEYhV9qmMjid-1" target="U7YWyGFxLEYhV9qmMjid-2" edge="1">
          <mxGeometry width="50" height="50" relative="1" as="geometry">
            <mxPoint x="191.12" y="270" as="sourcePoint" />
            <mxPoint x="241.12" y="220" as="targetPoint" />
          </mxGeometry>
        </mxCell>
        <mxCell id="U7YWyGFxLEYhV9qmMjid-4" value="&lt;div&gt;BotMove()&lt;/div&gt;" style="text;html=1;align=center;verticalAlign=middle;resizable=0;points=[];autosize=1;strokeColor=none;fillColor=none;" parent="mhkxPniMl4drfU7qb30M-1" vertex="1">
          <mxGeometry x="396.12" y="35" width="80" height="30" as="geometry" />
        </mxCell>
        <mxCell id="U7YWyGFxLEYhV9qmMjid-10" value="" style="endArrow=classic;html=1;rounded=0;" parent="mhkxPniMl4drfU7qb30M-1" source="U7YWyGFxLEYhV9qmMjid-1" edge="1">
          <mxGeometry width="50" height="50" relative="1" as="geometry">
            <mxPoint x="141.12" y="240" as="sourcePoint" />
            <mxPoint x="151.12" y="110" as="targetPoint" />
          </mxGeometry>
        </mxCell>
        <mxCell id="r4KgNFLcjgPJ8Ppvu8Oc-2" value="Button botCell = botCells[botCellIndex]" style="rounded=0;whiteSpace=wrap;html=1;" parent="mhkxPniMl4drfU7qb30M-1" vertex="1">
          <mxGeometry x="61.12" y="200" width="180" height="60" as="geometry" />
        </mxCell>
        <mxCell id="r4KgNFLcjgPJ8Ppvu8Oc-7" value="" style="endArrow=classic;html=1;rounded=0;" parent="mhkxPniMl4drfU7qb30M-1" edge="1">
          <mxGeometry width="50" height="50" relative="1" as="geometry">
            <mxPoint x="1" y="319" as="sourcePoint" />
            <mxPoint x="1" y="929" as="targetPoint" />
          </mxGeometry>
        </mxCell>
        <mxCell id="r4KgNFLcjgPJ8Ppvu8Oc-9" value="botCell.Content == null" style="strokeWidth=1;html=1;shape=mxgraph.flowchart.decision;whiteSpace=wrap;" parent="mhkxPniMl4drfU7qb30M-1" vertex="1">
          <mxGeometry x="60.99999999999999" y="289" width="180" height="60" as="geometry" />
        </mxCell>
        <mxCell id="r4KgNFLcjgPJ8Ppvu8Oc-10" value="botCell.Content = currentCard.ToString()" style="rounded=0;whiteSpace=wrap;html=1;" parent="mhkxPniMl4drfU7qb30M-1" vertex="1">
          <mxGeometry x="60.99999999999999" y="379" width="180" height="60" as="geometry" />
        </mxCell>
        <mxCell id="r4KgNFLcjgPJ8Ppvu8Oc-11" value="botCell.IsEnabled = false" style="rounded=0;whiteSpace=wrap;html=1;" parent="mhkxPniMl4drfU7qb30M-1" vertex="1">
          <mxGeometry x="60.99999999999999" y="469" width="180" height="60" as="geometry" />
        </mxCell>
        <mxCell id="r4KgNFLcjgPJ8Ppvu8Oc-12" value="isPlayerTurn = true" style="rounded=0;whiteSpace=wrap;html=1;" parent="mhkxPniMl4drfU7qb30M-1" vertex="1">
          <mxGeometry x="60.99999999999999" y="739" width="180" height="60" as="geometry" />
        </mxCell>
        <mxCell id="r4KgNFLcjgPJ8Ppvu8Oc-13" value="botScoreLabel.Content = &quot;Очки бота: &quot; + botScore" style="rounded=0;whiteSpace=wrap;html=1;" parent="mhkxPniMl4drfU7qb30M-1" vertex="1">
          <mxGeometry x="60.99999999999999" y="649" width="180" height="60" as="geometry" />
        </mxCell>
        <mxCell id="r4KgNFLcjgPJ8Ppvu8Oc-14" value="botScore += CalculatePoints(botCells, currentCard)" style="shape=process;whiteSpace=wrap;html=1;backgroundOutline=1;align=center;fontFamily=Helvetica;" parent="mhkxPniMl4drfU7qb30M-1" vertex="1">
          <mxGeometry x="60.99999999999999" y="559" width="180" height="60" as="geometry" />
        </mxCell>
        <mxCell id="r4KgNFLcjgPJ8Ppvu8Oc-15" value="GenerateNextCard()" style="shape=process;whiteSpace=wrap;html=1;backgroundOutline=1;align=center;fontFamily=Helvetica;" parent="mhkxPniMl4drfU7qb30M-1" vertex="1">
          <mxGeometry x="60.99999999999999" y="829" width="180" height="60" as="geometry" />
        </mxCell>
        <mxCell id="r4KgNFLcjgPJ8Ppvu8Oc-16" value="да" style="text;html=1;align=center;verticalAlign=middle;resizable=0;points=[];autosize=1;strokeColor=none;fillColor=none;" parent="mhkxPniMl4drfU7qb30M-1" vertex="1">
          <mxGeometry x="151" y="339" width="40" height="30" as="geometry" />
        </mxCell>
        <mxCell id="r4KgNFLcjgPJ8Ppvu8Oc-17" value="нет" style="text;html=1;align=center;verticalAlign=middle;resizable=0;points=[];autosize=1;strokeColor=none;fillColor=none;" parent="mhkxPniMl4drfU7qb30M-1" vertex="1">
          <mxGeometry x="30.999999999999993" y="329" width="40" height="30" as="geometry" />
        </mxCell>
        <mxCell id="r4KgNFLcjgPJ8Ppvu8Oc-18" value="" style="endArrow=classic;html=1;rounded=0;" parent="mhkxPniMl4drfU7qb30M-1" edge="1">
          <mxGeometry width="50" height="50" relative="1" as="geometry">
            <mxPoint x="60.99999999999999" y="318.5" as="sourcePoint" />
            <mxPoint y="318.5" as="targetPoint" />
          </mxGeometry>
        </mxCell>
        <mxCell id="r4KgNFLcjgPJ8Ppvu8Oc-19" value="" style="endArrow=classic;html=1;rounded=0;" parent="mhkxPniMl4drfU7qb30M-1" source="r4KgNFLcjgPJ8Ppvu8Oc-9" target="r4KgNFLcjgPJ8Ppvu8Oc-10" edge="1">
          <mxGeometry width="50" height="50" relative="1" as="geometry">
            <mxPoint x="161" y="269" as="sourcePoint" />
            <mxPoint x="161" y="299" as="targetPoint" />
          </mxGeometry>
        </mxCell>
        <mxCell id="r4KgNFLcjgPJ8Ppvu8Oc-20" value="" style="endArrow=classic;html=1;rounded=0;" parent="mhkxPniMl4drfU7qb30M-1" source="r4KgNFLcjgPJ8Ppvu8Oc-14" target="r4KgNFLcjgPJ8Ppvu8Oc-13" edge="1">
          <mxGeometry width="50" height="50" relative="1" as="geometry">
            <mxPoint x="321" y="439" as="sourcePoint" />
            <mxPoint x="521" y="699" as="targetPoint" />
          </mxGeometry>
        </mxCell>
        <mxCell id="r4KgNFLcjgPJ8Ppvu8Oc-21" value="" style="endArrow=classic;html=1;rounded=0;" parent="mhkxPniMl4drfU7qb30M-1" source="r4KgNFLcjgPJ8Ppvu8Oc-11" target="r4KgNFLcjgPJ8Ppvu8Oc-14" edge="1">
          <mxGeometry width="50" height="50" relative="1" as="geometry">
            <mxPoint x="331" y="449" as="sourcePoint" />
            <mxPoint x="531" y="709" as="targetPoint" />
          </mxGeometry>
        </mxCell>
        <mxCell id="r4KgNFLcjgPJ8Ppvu8Oc-22" value="" style="endArrow=classic;html=1;rounded=0;" parent="mhkxPniMl4drfU7qb30M-1" source="r4KgNFLcjgPJ8Ppvu8Oc-15" edge="1">
          <mxGeometry width="50" height="50" relative="1" as="geometry">
            <mxPoint x="341" y="459" as="sourcePoint" />
            <mxPoint x="321" y="859" as="targetPoint" />
          </mxGeometry>
        </mxCell>
        <mxCell id="r4KgNFLcjgPJ8Ppvu8Oc-23" value="" style="endArrow=classic;html=1;rounded=0;" parent="mhkxPniMl4drfU7qb30M-1" source="r4KgNFLcjgPJ8Ppvu8Oc-12" target="r4KgNFLcjgPJ8Ppvu8Oc-15" edge="1">
          <mxGeometry width="50" height="50" relative="1" as="geometry">
            <mxPoint x="351" y="469" as="sourcePoint" />
            <mxPoint x="551" y="729" as="targetPoint" />
          </mxGeometry>
        </mxCell>
        <mxCell id="r4KgNFLcjgPJ8Ppvu8Oc-24" value="" style="endArrow=classic;html=1;rounded=0;" parent="mhkxPniMl4drfU7qb30M-1" source="r4KgNFLcjgPJ8Ppvu8Oc-13" target="r4KgNFLcjgPJ8Ppvu8Oc-12" edge="1">
          <mxGeometry width="50" height="50" relative="1" as="geometry">
            <mxPoint x="361" y="479" as="sourcePoint" />
            <mxPoint x="561" y="739" as="targetPoint" />
          </mxGeometry>
        </mxCell>
        <mxCell id="r4KgNFLcjgPJ8Ppvu8Oc-25" value="" style="endArrow=classic;html=1;rounded=0;" parent="mhkxPniMl4drfU7qb30M-1" source="r4KgNFLcjgPJ8Ppvu8Oc-10" target="r4KgNFLcjgPJ8Ppvu8Oc-11" edge="1">
          <mxGeometry width="50" height="50" relative="1" as="geometry">
            <mxPoint x="371" y="489" as="sourcePoint" />
            <mxPoint x="571" y="749" as="targetPoint" />
          </mxGeometry>
        </mxCell>
        <mxCell id="r4KgNFLcjgPJ8Ppvu8Oc-26" value="" style="endArrow=classic;html=1;rounded=0;" parent="mhkxPniMl4drfU7qb30M-1" edge="1">
          <mxGeometry width="50" height="50" relative="1" as="geometry">
            <mxPoint x="1" y="929" as="sourcePoint" />
            <mxPoint x="151" y="929" as="targetPoint" />
          </mxGeometry>
        </mxCell>
        <mxCell id="r4KgNFLcjgPJ8Ppvu8Oc-27" value="" style="endArrow=classic;html=1;rounded=0;" parent="mhkxPniMl4drfU7qb30M-1" edge="1">
          <mxGeometry width="50" height="50" relative="1" as="geometry">
            <mxPoint x="151" y="929" as="sourcePoint" />
            <mxPoint x="151" y="979" as="targetPoint" />
          </mxGeometry>
        </mxCell>
        <mxCell id="r4KgNFLcjgPJ8Ppvu8Oc-28" value="BotMove()" style="shape=process;whiteSpace=wrap;html=1;backgroundOutline=1;align=center;fontFamily=Helvetica;" parent="mhkxPniMl4drfU7qb30M-1" vertex="1">
          <mxGeometry x="60.99999999999999" y="979" width="180" height="60" as="geometry" />
        </mxCell>
        <mxCell id="r4KgNFLcjgPJ8Ppvu8Oc-36" value="конец" style="strokeWidth=1;html=1;shape=mxgraph.flowchart.start_1;whiteSpace=wrap;" parent="mhkxPniMl4drfU7qb30M-1" vertex="1">
          <mxGeometry x="60.99999999999999" y="1089" width="180" height="60" as="geometry" />
        </mxCell>
        <mxCell id="r4KgNFLcjgPJ8Ppvu8Oc-37" value="" style="endArrow=classic;html=1;rounded=0;" parent="mhkxPniMl4drfU7qb30M-1" source="r4KgNFLcjgPJ8Ppvu8Oc-28" target="r4KgNFLcjgPJ8Ppvu8Oc-36" edge="1">
          <mxGeometry width="50" height="50" relative="1" as="geometry">
            <mxPoint x="251" y="779" as="sourcePoint" />
            <mxPoint x="341" y="779" as="targetPoint" />
          </mxGeometry>
        </mxCell>
        <mxCell id="r4KgNFLcjgPJ8Ppvu8Oc-38" value="" style="endArrow=classic;html=1;rounded=0;" parent="mhkxPniMl4drfU7qb30M-1" edge="1">
          <mxGeometry width="50" height="50" relative="1" as="geometry">
            <mxPoint x="321" y="859" as="sourcePoint" />
            <mxPoint x="321" y="1069" as="targetPoint" />
          </mxGeometry>
        </mxCell>
        <mxCell id="r4KgNFLcjgPJ8Ppvu8Oc-39" value="" style="endArrow=classic;html=1;rounded=0;" parent="mhkxPniMl4drfU7qb30M-1" edge="1">
          <mxGeometry width="50" height="50" relative="1" as="geometry">
            <mxPoint x="321" y="1069" as="sourcePoint" />
            <mxPoint x="151" y="1069" as="targetPoint" />
          </mxGeometry>
        </mxCell>
        <mxCell id="r4KgNFLcjgPJ8Ppvu8Oc-43" value="botCellIndex = random.Next(botCells.Count)" style="rounded=0;whiteSpace=wrap;html=1;" parent="mhkxPniMl4drfU7qb30M-1" vertex="1">
          <mxGeometry x="61.12" y="110" width="180" height="60" as="geometry" />
        </mxCell>
        <mxCell id="r4KgNFLcjgPJ8Ppvu8Oc-45" value="" style="endArrow=classic;html=1;rounded=0;" parent="mhkxPniMl4drfU7qb30M-1" source="r4KgNFLcjgPJ8Ppvu8Oc-43" target="r4KgNFLcjgPJ8Ppvu8Oc-2" edge="1">
          <mxGeometry width="50" height="50" relative="1" as="geometry">
            <mxPoint x="161.12" y="90" as="sourcePoint" />
            <mxPoint x="161.12" y="120" as="targetPoint" />
          </mxGeometry>
        </mxCell>
        <mxCell id="r4KgNFLcjgPJ8Ppvu8Oc-46" value="" style="endArrow=classic;html=1;rounded=0;" parent="mhkxPniMl4drfU7qb30M-1" source="r4KgNFLcjgPJ8Ppvu8Oc-2" target="r4KgNFLcjgPJ8Ppvu8Oc-9" edge="1">
          <mxGeometry width="50" height="50" relative="1" as="geometry">
            <mxPoint x="161.12" y="180" as="sourcePoint" />
            <mxPoint x="161.12" y="210" as="targetPoint" />
          </mxGeometry>
        </mxCell>
      </root>
    </mxGraphModel>
  </diagram>
  <diagram id="6tQqYXRdohmajAU9cK79" name="CalculatePointsForCount(int count)">
    <mxGraphModel dx="1360" dy="705" grid="1" gridSize="10" guides="1" tooltips="1" connect="1" arrows="1" fold="1" page="1" pageScale="1" pageWidth="827" pageHeight="1169" math="0" shadow="0">
      <root>
        <mxCell id="0" />
        <mxCell id="1" parent="0" />
        <mxCell id="OYv2gJF0-Kng_XxUktso-1" value="" style="group" parent="1" vertex="1" connectable="0">
          <mxGeometry x="120" y="30" width="570" height="730" as="geometry" />
        </mxCell>
        <mxCell id="g-UOhz2Cjf6-wPdNYZq0-1" value="начало" style="strokeWidth=1;html=1;shape=mxgraph.flowchart.start_1;whiteSpace=wrap;" parent="OYv2gJF0-Kng_XxUktso-1" vertex="1">
          <mxGeometry y="20" width="180" height="60" as="geometry" />
        </mxCell>
        <mxCell id="g-UOhz2Cjf6-wPdNYZq0-2" value="" style="strokeWidth=1;html=1;shape=mxgraph.flowchart.annotation_2;align=left;labelPosition=right;pointerEvents=1;" parent="OYv2gJF0-Kng_XxUktso-1" vertex="1">
          <mxGeometry x="260" width="50" height="100" as="geometry" />
        </mxCell>
        <mxCell id="g-UOhz2Cjf6-wPdNYZq0-3" value="" style="endArrow=none;dashed=1;html=1;dashPattern=1 3;strokeWidth=2;rounded=0;entryX=0;entryY=0.5;entryDx=0;entryDy=0;entryPerimeter=0;" parent="OYv2gJF0-Kng_XxUktso-1" source="g-UOhz2Cjf6-wPdNYZq0-1" target="g-UOhz2Cjf6-wPdNYZq0-2" edge="1">
          <mxGeometry width="50" height="50" relative="1" as="geometry">
            <mxPoint x="130" y="270" as="sourcePoint" />
            <mxPoint x="180" y="220" as="targetPoint" />
          </mxGeometry>
        </mxCell>
        <mxCell id="g-UOhz2Cjf6-wPdNYZq0-4" value="CalculatePointsForCount(int count)" style="text;html=1;align=center;verticalAlign=middle;resizable=0;points=[];autosize=1;strokeColor=none;fillColor=none;" parent="OYv2gJF0-Kng_XxUktso-1" vertex="1">
          <mxGeometry x="310" y="35" width="210" height="30" as="geometry" />
        </mxCell>
        <mxCell id="g-UOhz2Cjf6-wPdNYZq0-10" value="" style="endArrow=classic;html=1;rounded=0;" parent="OYv2gJF0-Kng_XxUktso-1" source="g-UOhz2Cjf6-wPdNYZq0-1" edge="1">
          <mxGeometry width="50" height="50" relative="1" as="geometry">
            <mxPoint x="80" y="240" as="sourcePoint" />
            <mxPoint x="90" y="110" as="targetPoint" />
          </mxGeometry>
        </mxCell>
        <mxCell id="6RCj2e3aW99JYcFIy8Dy-1" value="count" style="rounded=1;whiteSpace=wrap;html=1;" parent="OYv2gJF0-Kng_XxUktso-1" vertex="1">
          <mxGeometry y="110" width="180" height="60" as="geometry" />
        </mxCell>
        <mxCell id="IV-yAMSeg9fs6KSsS2ms-1" value="case 2" style="strokeWidth=1;html=1;shape=mxgraph.flowchart.decision;whiteSpace=wrap;" parent="OYv2gJF0-Kng_XxUktso-1" vertex="1">
          <mxGeometry y="200" width="180" height="60" as="geometry" />
        </mxCell>
        <mxCell id="IV-yAMSeg9fs6KSsS2ms-2" value="case 3" style="strokeWidth=1;html=1;shape=mxgraph.flowchart.decision;whiteSpace=wrap;" parent="OYv2gJF0-Kng_XxUktso-1" vertex="1">
          <mxGeometry y="290" width="180" height="60" as="geometry" />
        </mxCell>
        <mxCell id="IV-yAMSeg9fs6KSsS2ms-3" value="case 4" style="strokeWidth=1;html=1;shape=mxgraph.flowchart.decision;whiteSpace=wrap;" parent="OYv2gJF0-Kng_XxUktso-1" vertex="1">
          <mxGeometry y="380" width="180" height="60" as="geometry" />
        </mxCell>
        <mxCell id="IV-yAMSeg9fs6KSsS2ms-4" value="case 5" style="strokeWidth=1;html=1;shape=mxgraph.flowchart.decision;whiteSpace=wrap;" parent="OYv2gJF0-Kng_XxUktso-1" vertex="1">
          <mxGeometry y="470" width="180" height="60" as="geometry" />
        </mxCell>
        <mxCell id="IV-yAMSeg9fs6KSsS2ms-5" value="10" style="shape=parallelogram;html=1;strokeWidth=1;perimeter=parallelogramPerimeter;whiteSpace=wrap;rounded=1;arcSize=12;size=0.23;" parent="OYv2gJF0-Kng_XxUktso-1" vertex="1">
          <mxGeometry x="240" y="200" width="180" height="60" as="geometry" />
        </mxCell>
        <mxCell id="IV-yAMSeg9fs6KSsS2ms-6" value="40" style="shape=parallelogram;html=1;strokeWidth=1;perimeter=parallelogramPerimeter;whiteSpace=wrap;rounded=1;arcSize=12;size=0.23;" parent="OYv2gJF0-Kng_XxUktso-1" vertex="1">
          <mxGeometry x="240" y="290" width="180" height="60" as="geometry" />
        </mxCell>
        <mxCell id="IV-yAMSeg9fs6KSsS2ms-7" value="160" style="shape=parallelogram;html=1;strokeWidth=1;perimeter=parallelogramPerimeter;whiteSpace=wrap;rounded=1;arcSize=12;size=0.23;" parent="OYv2gJF0-Kng_XxUktso-1" vertex="1">
          <mxGeometry x="240" y="380" width="180" height="60" as="geometry" />
        </mxCell>
        <mxCell id="IV-yAMSeg9fs6KSsS2ms-8" value="50" style="shape=parallelogram;html=1;strokeWidth=1;perimeter=parallelogramPerimeter;whiteSpace=wrap;rounded=1;arcSize=12;size=0.23;" parent="OYv2gJF0-Kng_XxUktso-1" vertex="1">
          <mxGeometry x="240" y="470" width="180" height="60" as="geometry" />
        </mxCell>
        <mxCell id="IV-yAMSeg9fs6KSsS2ms-9" value="0" style="shape=parallelogram;html=1;strokeWidth=1;perimeter=parallelogramPerimeter;whiteSpace=wrap;rounded=1;arcSize=12;size=0.23;" parent="OYv2gJF0-Kng_XxUktso-1" vertex="1">
          <mxGeometry x="240" y="560" width="180" height="60" as="geometry" />
        </mxCell>
        <mxCell id="IV-yAMSeg9fs6KSsS2ms-10" value="default" style="strokeWidth=1;html=1;shape=mxgraph.flowchart.decision;whiteSpace=wrap;" parent="OYv2gJF0-Kng_XxUktso-1" vertex="1">
          <mxGeometry y="560" width="180" height="60" as="geometry" />
        </mxCell>
        <mxCell id="IV-yAMSeg9fs6KSsS2ms-11" value="" style="endArrow=classic;html=1;rounded=0;" parent="OYv2gJF0-Kng_XxUktso-1" source="6RCj2e3aW99JYcFIy8Dy-1" target="IV-yAMSeg9fs6KSsS2ms-1" edge="1">
          <mxGeometry width="50" height="50" relative="1" as="geometry">
            <mxPoint x="210" y="370" as="sourcePoint" />
            <mxPoint x="260" y="320" as="targetPoint" />
          </mxGeometry>
        </mxCell>
        <mxCell id="IV-yAMSeg9fs6KSsS2ms-12" value="" style="endArrow=classic;html=1;rounded=0;" parent="OYv2gJF0-Kng_XxUktso-1" source="IV-yAMSeg9fs6KSsS2ms-4" target="IV-yAMSeg9fs6KSsS2ms-8" edge="1">
          <mxGeometry width="50" height="50" relative="1" as="geometry">
            <mxPoint x="210" y="370" as="sourcePoint" />
            <mxPoint x="260" y="320" as="targetPoint" />
          </mxGeometry>
        </mxCell>
        <mxCell id="IV-yAMSeg9fs6KSsS2ms-13" value="" style="endArrow=classic;html=1;rounded=0;" parent="OYv2gJF0-Kng_XxUktso-1" source="IV-yAMSeg9fs6KSsS2ms-3" target="IV-yAMSeg9fs6KSsS2ms-7" edge="1">
          <mxGeometry width="50" height="50" relative="1" as="geometry">
            <mxPoint x="210" y="370" as="sourcePoint" />
            <mxPoint x="260" y="320" as="targetPoint" />
          </mxGeometry>
        </mxCell>
        <mxCell id="IV-yAMSeg9fs6KSsS2ms-14" value="" style="endArrow=classic;html=1;rounded=0;" parent="OYv2gJF0-Kng_XxUktso-1" source="IV-yAMSeg9fs6KSsS2ms-2" target="IV-yAMSeg9fs6KSsS2ms-6" edge="1">
          <mxGeometry width="50" height="50" relative="1" as="geometry">
            <mxPoint x="210" y="370" as="sourcePoint" />
            <mxPoint x="260" y="320" as="targetPoint" />
          </mxGeometry>
        </mxCell>
        <mxCell id="IV-yAMSeg9fs6KSsS2ms-15" value="" style="endArrow=classic;html=1;rounded=0;" parent="OYv2gJF0-Kng_XxUktso-1" source="IV-yAMSeg9fs6KSsS2ms-1" target="IV-yAMSeg9fs6KSsS2ms-5" edge="1">
          <mxGeometry width="50" height="50" relative="1" as="geometry">
            <mxPoint x="210" y="370" as="sourcePoint" />
            <mxPoint x="260" y="320" as="targetPoint" />
          </mxGeometry>
        </mxCell>
        <mxCell id="IV-yAMSeg9fs6KSsS2ms-16" value="" style="endArrow=classic;html=1;rounded=0;" parent="OYv2gJF0-Kng_XxUktso-1" source="IV-yAMSeg9fs6KSsS2ms-1" target="IV-yAMSeg9fs6KSsS2ms-2" edge="1">
          <mxGeometry width="50" height="50" relative="1" as="geometry">
            <mxPoint x="210" y="370" as="sourcePoint" />
            <mxPoint x="260" y="320" as="targetPoint" />
          </mxGeometry>
        </mxCell>
        <mxCell id="IV-yAMSeg9fs6KSsS2ms-17" value="" style="endArrow=classic;html=1;rounded=0;" parent="OYv2gJF0-Kng_XxUktso-1" source="IV-yAMSeg9fs6KSsS2ms-3" target="IV-yAMSeg9fs6KSsS2ms-4" edge="1">
          <mxGeometry width="50" height="50" relative="1" as="geometry">
            <mxPoint x="210" y="370" as="sourcePoint" />
            <mxPoint x="260" y="320" as="targetPoint" />
          </mxGeometry>
        </mxCell>
        <mxCell id="IV-yAMSeg9fs6KSsS2ms-18" value="" style="endArrow=classic;html=1;rounded=0;" parent="OYv2gJF0-Kng_XxUktso-1" source="IV-yAMSeg9fs6KSsS2ms-2" target="IV-yAMSeg9fs6KSsS2ms-3" edge="1">
          <mxGeometry width="50" height="50" relative="1" as="geometry">
            <mxPoint x="210" y="370" as="sourcePoint" />
            <mxPoint x="260" y="320" as="targetPoint" />
          </mxGeometry>
        </mxCell>
        <mxCell id="IV-yAMSeg9fs6KSsS2ms-19" value="" style="endArrow=classic;html=1;rounded=0;" parent="OYv2gJF0-Kng_XxUktso-1" source="IV-yAMSeg9fs6KSsS2ms-4" target="IV-yAMSeg9fs6KSsS2ms-10" edge="1">
          <mxGeometry width="50" height="50" relative="1" as="geometry">
            <mxPoint x="210" y="370" as="sourcePoint" />
            <mxPoint x="260" y="320" as="targetPoint" />
          </mxGeometry>
        </mxCell>
        <mxCell id="IV-yAMSeg9fs6KSsS2ms-20" value="" style="endArrow=classic;html=1;rounded=0;" parent="OYv2gJF0-Kng_XxUktso-1" source="IV-yAMSeg9fs6KSsS2ms-6" edge="1">
          <mxGeometry width="50" height="50" relative="1" as="geometry">
            <mxPoint x="210" y="370" as="sourcePoint" />
            <mxPoint x="480" y="320" as="targetPoint" />
          </mxGeometry>
        </mxCell>
        <mxCell id="IV-yAMSeg9fs6KSsS2ms-21" value="" style="endArrow=classic;html=1;rounded=0;entryX=0.5;entryY=0;entryDx=0;entryDy=0;entryPerimeter=0;" parent="OYv2gJF0-Kng_XxUktso-1" target="IV-yAMSeg9fs6KSsS2ms-36" edge="1">
          <mxGeometry width="50" height="50" relative="1" as="geometry">
            <mxPoint x="480" y="230" as="sourcePoint" />
            <mxPoint x="480" y="650" as="targetPoint" />
          </mxGeometry>
        </mxCell>
        <mxCell id="IV-yAMSeg9fs6KSsS2ms-22" value="" style="endArrow=classic;html=1;rounded=0;" parent="OYv2gJF0-Kng_XxUktso-1" source="IV-yAMSeg9fs6KSsS2ms-5" edge="1">
          <mxGeometry width="50" height="50" relative="1" as="geometry">
            <mxPoint x="210" y="370" as="sourcePoint" />
            <mxPoint x="480" y="230" as="targetPoint" />
          </mxGeometry>
        </mxCell>
        <mxCell id="IV-yAMSeg9fs6KSsS2ms-23" value="" style="endArrow=classic;html=1;rounded=0;" parent="OYv2gJF0-Kng_XxUktso-1" source="IV-yAMSeg9fs6KSsS2ms-10" target="IV-yAMSeg9fs6KSsS2ms-9" edge="1">
          <mxGeometry width="50" height="50" relative="1" as="geometry">
            <mxPoint x="210" y="370" as="sourcePoint" />
            <mxPoint x="260" y="320" as="targetPoint" />
          </mxGeometry>
        </mxCell>
        <mxCell id="IV-yAMSeg9fs6KSsS2ms-24" value="" style="endArrow=classic;html=1;rounded=0;" parent="OYv2gJF0-Kng_XxUktso-1" edge="1">
          <mxGeometry width="50" height="50" relative="1" as="geometry">
            <mxPoint x="400" y="409.5" as="sourcePoint" />
            <mxPoint x="481" y="409.5" as="targetPoint" />
          </mxGeometry>
        </mxCell>
        <mxCell id="IV-yAMSeg9fs6KSsS2ms-25" value="" style="endArrow=classic;html=1;rounded=0;" parent="OYv2gJF0-Kng_XxUktso-1" edge="1">
          <mxGeometry width="50" height="50" relative="1" as="geometry">
            <mxPoint x="400" y="499.5" as="sourcePoint" />
            <mxPoint x="481" y="499.5" as="targetPoint" />
          </mxGeometry>
        </mxCell>
        <mxCell id="IV-yAMSeg9fs6KSsS2ms-26" value="" style="endArrow=classic;html=1;rounded=0;" parent="OYv2gJF0-Kng_XxUktso-1" edge="1">
          <mxGeometry width="50" height="50" relative="1" as="geometry">
            <mxPoint x="400" y="589.5" as="sourcePoint" />
            <mxPoint x="481" y="589.5" as="targetPoint" />
          </mxGeometry>
        </mxCell>
        <mxCell id="IV-yAMSeg9fs6KSsS2ms-27" value="да" style="text;html=1;align=center;verticalAlign=middle;resizable=0;points=[];autosize=1;strokeColor=none;fillColor=none;" parent="OYv2gJF0-Kng_XxUktso-1" vertex="1">
          <mxGeometry x="160" y="228" width="40" height="30" as="geometry" />
        </mxCell>
        <mxCell id="IV-yAMSeg9fs6KSsS2ms-28" value="нет&lt;span style=&quot;color: rgba(0, 0, 0, 0); font-family: monospace; font-size: 0px; text-align: start;&quot;&gt;%3CmxGraphModel%3E%3Croot%3E%3CmxCell%20id%3D%220%22%2F%3E%3CmxCell%20id%3D%221%22%20parent%3D%220%22%2F%3E%3CmxCell%20id%3D%222%22%20value%3D%22%22%20style%3D%22endArrow%3Dclassic%3Bhtml%3D1%3Brounded%3D0%3B%22%20edge%3D%221%22%20parent%3D%221%22%3E%3CmxGeometry%20width%3D%2250%22%20height%3D%2250%22%20relative%3D%221%22%20as%3D%22geometry%22%3E%3CmxPoint%20x%3D%22520%22%20y%3D%22529.5%22%20as%3D%22sourcePoint%22%2F%3E%3CmxPoint%20x%3D%22601%22%20y%3D%22529.5%22%20as%3D%22targetPoint%22%2F%3E%3C%2FmxGeometry%3E%3C%2FmxCell%3E%3C%2Froot%3E%3C%2FmxGraphModel%3E&lt;/span&gt;" style="text;html=1;align=center;verticalAlign=middle;resizable=0;points=[];autosize=1;strokeColor=none;fillColor=none;" parent="OYv2gJF0-Kng_XxUktso-1" vertex="1">
          <mxGeometry x="40" y="258" width="40" height="30" as="geometry" />
        </mxCell>
        <mxCell id="IV-yAMSeg9fs6KSsS2ms-29" value="нет&lt;span style=&quot;color: rgba(0, 0, 0, 0); font-family: monospace; font-size: 0px; text-align: start;&quot;&gt;%3CmxGraphModel%3E%3Croot%3E%3CmxCell%20id%3D%220%22%2F%3E%3CmxCell%20id%3D%221%22%20parent%3D%220%22%2F%3E%3CmxCell%20id%3D%222%22%20value%3D%22%22%20style%3D%22endArrow%3Dclassic%3Bhtml%3D1%3Brounded%3D0%3B%22%20edge%3D%221%22%20parent%3D%221%22%3E%3CmxGeometry%20width%3D%2250%22%20height%3D%2250%22%20relative%3D%221%22%20as%3D%22geometry%22%3E%3CmxPoint%20x%3D%22520%22%20y%3D%22529.5%22%20as%3D%22sourcePoint%22%2F%3E%3CmxPoint%20x%3D%22601%22%20y%3D%22529.5%22%20as%3D%22targetPoint%22%2F%3E%3C%2FmxGeometry%3E%3C%2FmxCell%3E%3C%2Froot%3E%3C%2FmxGraphModel%3E&lt;/span&gt;" style="text;html=1;align=center;verticalAlign=middle;resizable=0;points=[];autosize=1;strokeColor=none;fillColor=none;" parent="OYv2gJF0-Kng_XxUktso-1" vertex="1">
          <mxGeometry x="40" y="350" width="40" height="30" as="geometry" />
        </mxCell>
        <mxCell id="IV-yAMSeg9fs6KSsS2ms-30" value="нет&lt;span style=&quot;color: rgba(0, 0, 0, 0); font-family: monospace; font-size: 0px; text-align: start;&quot;&gt;%3CmxGraphModel%3E%3Croot%3E%3CmxCell%20id%3D%220%22%2F%3E%3CmxCell%20id%3D%221%22%20parent%3D%220%22%2F%3E%3CmxCell%20id%3D%222%22%20value%3D%22%22%20style%3D%22endArrow%3Dclassic%3Bhtml%3D1%3Brounded%3D0%3B%22%20edge%3D%221%22%20parent%3D%221%22%3E%3CmxGeometry%20width%3D%2250%22%20height%3D%2250%22%20relative%3D%221%22%20as%3D%22geometry%22%3E%3CmxPoint%20x%3D%22520%22%20y%3D%22529.5%22%20as%3D%22sourcePoint%22%2F%3E%3CmxPoint%20x%3D%22601%22%20y%3D%22529.5%22%20as%3D%22targetPoint%22%2F%3E%3C%2FmxGeometry%3E%3C%2FmxCell%3E%3C%2Froot%3E%3C%2FmxGraphModel%3E&lt;/span&gt;" style="text;html=1;align=center;verticalAlign=middle;resizable=0;points=[];autosize=1;strokeColor=none;fillColor=none;" parent="OYv2gJF0-Kng_XxUktso-1" vertex="1">
          <mxGeometry x="40" y="440" width="40" height="30" as="geometry" />
        </mxCell>
        <mxCell id="IV-yAMSeg9fs6KSsS2ms-31" value="нет&lt;span style=&quot;color: rgba(0, 0, 0, 0); font-family: monospace; font-size: 0px; text-align: start;&quot;&gt;%3CmxGraphModel%3E%3Croot%3E%3CmxCell%20id%3D%220%22%2F%3E%3CmxCell%20id%3D%221%22%20parent%3D%220%22%2F%3E%3CmxCell%20id%3D%222%22%20value%3D%22%22%20style%3D%22endArrow%3Dclassic%3Bhtml%3D1%3Brounded%3D0%3B%22%20edge%3D%221%22%20parent%3D%221%22%3E%3CmxGeometry%20width%3D%2250%22%20height%3D%2250%22%20relative%3D%221%22%20as%3D%22geometry%22%3E%3CmxPoint%20x%3D%22520%22%20y%3D%22529.5%22%20as%3D%22sourcePoint%22%2F%3E%3CmxPoint%20x%3D%22601%22%20y%3D%22529.5%22%20as%3D%22targetPoint%22%2F%3E%3C%2FmxGeometry%3E%3C%2FmxCell%3E%3C%2Froot%3E%3C%2FmxGraphModel%3E&lt;/span&gt;" style="text;html=1;align=center;verticalAlign=middle;resizable=0;points=[];autosize=1;strokeColor=none;fillColor=none;" parent="OYv2gJF0-Kng_XxUktso-1" vertex="1">
          <mxGeometry x="40" y="525" width="40" height="30" as="geometry" />
        </mxCell>
        <mxCell id="IV-yAMSeg9fs6KSsS2ms-32" value="да" style="text;html=1;align=center;verticalAlign=middle;resizable=0;points=[];autosize=1;strokeColor=none;fillColor=none;" parent="OYv2gJF0-Kng_XxUktso-1" vertex="1">
          <mxGeometry x="160" y="330" width="40" height="30" as="geometry" />
        </mxCell>
        <mxCell id="IV-yAMSeg9fs6KSsS2ms-33" value="да" style="text;html=1;align=center;verticalAlign=middle;resizable=0;points=[];autosize=1;strokeColor=none;fillColor=none;" parent="OYv2gJF0-Kng_XxUktso-1" vertex="1">
          <mxGeometry x="160" y="420" width="40" height="30" as="geometry" />
        </mxCell>
        <mxCell id="IV-yAMSeg9fs6KSsS2ms-34" value="да" style="text;html=1;align=center;verticalAlign=middle;resizable=0;points=[];autosize=1;strokeColor=none;fillColor=none;" parent="OYv2gJF0-Kng_XxUktso-1" vertex="1">
          <mxGeometry x="160" y="510" width="40" height="30" as="geometry" />
        </mxCell>
        <mxCell id="IV-yAMSeg9fs6KSsS2ms-35" value="да" style="text;html=1;align=center;verticalAlign=middle;resizable=0;points=[];autosize=1;strokeColor=none;fillColor=none;" parent="OYv2gJF0-Kng_XxUktso-1" vertex="1">
          <mxGeometry x="160" y="590" width="40" height="30" as="geometry" />
        </mxCell>
        <mxCell id="IV-yAMSeg9fs6KSsS2ms-36" value="конец" style="strokeWidth=1;html=1;shape=mxgraph.flowchart.start_1;whiteSpace=wrap;" parent="OYv2gJF0-Kng_XxUktso-1" vertex="1">
          <mxGeometry x="390" y="670" width="180" height="60" as="geometry" />
        </mxCell>
        <mxCell id="IV-yAMSeg9fs6KSsS2ms-37" value="" style="endArrow=classic;html=1;rounded=0;" parent="OYv2gJF0-Kng_XxUktso-1" edge="1">
          <mxGeometry width="50" height="50" relative="1" as="geometry">
            <mxPoint x="89.80000000000001" y="620" as="sourcePoint" />
            <mxPoint x="89.80000000000001" y="650" as="targetPoint" />
          </mxGeometry>
        </mxCell>
        <mxCell id="IV-yAMSeg9fs6KSsS2ms-38" value="" style="endArrow=classic;html=1;rounded=0;" parent="OYv2gJF0-Kng_XxUktso-1" edge="1">
          <mxGeometry width="50" height="50" relative="1" as="geometry">
            <mxPoint x="90" y="650" as="sourcePoint" />
            <mxPoint x="480" y="650" as="targetPoint" />
          </mxGeometry>
        </mxCell>
      </root>
    </mxGraphModel>
  </diagram>
  <diagram id="eBg-60ShozzXzV9iw1pz" name="FinishGame()">
    <mxGraphModel dx="1360" dy="705" grid="1" gridSize="10" guides="1" tooltips="1" connect="1" arrows="1" fold="1" page="1" pageScale="1" pageWidth="827" pageHeight="1169" math="0" shadow="0">
      <root>
        <mxCell id="0" />
        <mxCell id="1" parent="0" />
        <mxCell id="oVAVsAvZxT9xoURa9ggT-1" value="" style="group" parent="1" vertex="1" connectable="0">
          <mxGeometry x="59" y="30" width="471" height="860" as="geometry" />
        </mxCell>
        <mxCell id="aAfN3tDzFbKExTuc4z3_-1" value="начало" style="strokeWidth=1;html=1;shape=mxgraph.flowchart.start_1;whiteSpace=wrap;" parent="oVAVsAvZxT9xoURa9ggT-1" vertex="1">
          <mxGeometry x="61" y="20" width="180" height="60" as="geometry" />
        </mxCell>
        <mxCell id="aAfN3tDzFbKExTuc4z3_-2" value="" style="strokeWidth=1;html=1;shape=mxgraph.flowchart.annotation_2;align=left;labelPosition=right;pointerEvents=1;" parent="oVAVsAvZxT9xoURa9ggT-1" vertex="1">
          <mxGeometry x="321" width="50" height="100" as="geometry" />
        </mxCell>
        <mxCell id="aAfN3tDzFbKExTuc4z3_-3" value="" style="endArrow=none;dashed=1;html=1;dashPattern=1 3;strokeWidth=2;rounded=0;entryX=0;entryY=0.5;entryDx=0;entryDy=0;entryPerimeter=0;" parent="oVAVsAvZxT9xoURa9ggT-1" source="aAfN3tDzFbKExTuc4z3_-1" target="aAfN3tDzFbKExTuc4z3_-2" edge="1">
          <mxGeometry width="50" height="50" relative="1" as="geometry">
            <mxPoint x="191" y="270" as="sourcePoint" />
            <mxPoint x="241" y="220" as="targetPoint" />
          </mxGeometry>
        </mxCell>
        <mxCell id="aAfN3tDzFbKExTuc4z3_-4" value="&lt;div&gt;FinishGame()&lt;/div&gt;" style="text;html=1;align=center;verticalAlign=middle;resizable=0;points=[];autosize=1;strokeColor=none;fillColor=none;" parent="oVAVsAvZxT9xoURa9ggT-1" vertex="1">
          <mxGeometry x="371" y="35" width="100" height="30" as="geometry" />
        </mxCell>
        <mxCell id="aAfN3tDzFbKExTuc4z3_-10" value="" style="endArrow=classic;html=1;rounded=0;" parent="oVAVsAvZxT9xoURa9ggT-1" source="aAfN3tDzFbKExTuc4z3_-1" target="aAfN3tDzFbKExTuc4z3_-26" edge="1">
          <mxGeometry width="50" height="50" relative="1" as="geometry">
            <mxPoint x="141" y="240" as="sourcePoint" />
            <mxPoint x="150" y="130" as="targetPoint" />
          </mxGeometry>
        </mxCell>
        <mxCell id="aAfN3tDzFbKExTuc4z3_-14" value="" style="endArrow=classic;html=1;rounded=0;" parent="oVAVsAvZxT9xoURa9ggT-1" edge="1">
          <mxGeometry width="50" height="50" relative="1" as="geometry">
            <mxPoint x="321" y="320" as="sourcePoint" />
            <mxPoint x="321" y="720" as="targetPoint" />
          </mxGeometry>
        </mxCell>
        <mxCell id="aAfN3tDzFbKExTuc4z3_-20" value="" style="endArrow=classic;html=1;rounded=0;" parent="oVAVsAvZxT9xoURa9ggT-1" target="aAfN3tDzFbKExTuc4z3_-21" edge="1">
          <mxGeometry width="50" height="50" relative="1" as="geometry">
            <mxPoint x="321" y="740" as="sourcePoint" />
            <mxPoint x="321" y="790" as="targetPoint" />
          </mxGeometry>
        </mxCell>
        <mxCell id="aAfN3tDzFbKExTuc4z3_-21" value="конец" style="strokeWidth=1;html=1;shape=mxgraph.flowchart.start_1;whiteSpace=wrap;" parent="oVAVsAvZxT9xoURa9ggT-1" vertex="1">
          <mxGeometry x="231" y="800" width="180" height="60" as="geometry" />
        </mxCell>
        <mxCell id="aAfN3tDzFbKExTuc4z3_-26" value="int winnerScore = Math.Max(playerScore, botScore)" style="rounded=0;whiteSpace=wrap;html=1;" parent="oVAVsAvZxT9xoURa9ggT-1" vertex="1">
          <mxGeometry x="61" y="110" width="180" height="60" as="geometry" />
        </mxCell>
        <mxCell id="aAfN3tDzFbKExTuc4z3_-28" value="playerScore &amp;gt; botScore" style="strokeWidth=1;html=1;shape=mxgraph.flowchart.decision;whiteSpace=wrap;" parent="oVAVsAvZxT9xoURa9ggT-1" vertex="1">
          <mxGeometry x="61" y="198" width="180" height="60" as="geometry" />
        </mxCell>
        <mxCell id="aAfN3tDzFbKExTuc4z3_-29" value="" style="endArrow=classic;html=1;rounded=0;" parent="oVAVsAvZxT9xoURa9ggT-1" source="aAfN3tDzFbKExTuc4z3_-28" edge="1">
          <mxGeometry width="50" height="50" relative="1" as="geometry">
            <mxPoint x="141" y="328" as="sourcePoint" />
            <mxPoint x="151" y="288" as="targetPoint" />
          </mxGeometry>
        </mxCell>
        <mxCell id="aAfN3tDzFbKExTuc4z3_-30" value="да" style="text;html=1;align=center;verticalAlign=middle;resizable=0;points=[];autosize=1;strokeColor=none;fillColor=none;" parent="oVAVsAvZxT9xoURa9ggT-1" vertex="1">
          <mxGeometry x="151" y="246" width="40" height="30" as="geometry" />
        </mxCell>
        <mxCell id="aAfN3tDzFbKExTuc4z3_-31" value="нет" style="text;html=1;align=center;verticalAlign=middle;resizable=0;points=[];autosize=1;strokeColor=none;fillColor=none;" parent="oVAVsAvZxT9xoURa9ggT-1" vertex="1">
          <mxGeometry x="31" y="238" width="40" height="30" as="geometry" />
        </mxCell>
        <mxCell id="aAfN3tDzFbKExTuc4z3_-32" value="" style="endArrow=classic;html=1;rounded=0;" parent="oVAVsAvZxT9xoURa9ggT-1" source="aAfN3tDzFbKExTuc4z3_-28" edge="1">
          <mxGeometry width="50" height="50" relative="1" as="geometry">
            <mxPoint x="141" y="328" as="sourcePoint" />
            <mxPoint y="228" as="targetPoint" />
          </mxGeometry>
        </mxCell>
        <mxCell id="aAfN3tDzFbKExTuc4z3_-38" value="winner = &quot;Игрок&quot;" style="rounded=0;whiteSpace=wrap;html=1;" parent="oVAVsAvZxT9xoURa9ggT-1" vertex="1">
          <mxGeometry x="61" y="290" width="180" height="60" as="geometry" />
        </mxCell>
        <mxCell id="aAfN3tDzFbKExTuc4z3_-39" value="" style="endArrow=classic;html=1;rounded=0;" parent="oVAVsAvZxT9xoURa9ggT-1" source="aAfN3tDzFbKExTuc4z3_-38" edge="1">
          <mxGeometry width="50" height="50" relative="1" as="geometry">
            <mxPoint x="602" y="220" as="sourcePoint" />
            <mxPoint x="321" y="320" as="targetPoint" />
          </mxGeometry>
        </mxCell>
        <mxCell id="aAfN3tDzFbKExTuc4z3_-40" value="$&quot;{winner} побеждает с {winnerScore} очками!&quot;" style="strokeWidth=1;html=1;shape=mxgraph.flowchart.display;whiteSpace=wrap;" parent="oVAVsAvZxT9xoURa9ggT-1" vertex="1">
          <mxGeometry x="221" y="720" width="180" height="60" as="geometry" />
        </mxCell>
        <mxCell id="aAfN3tDzFbKExTuc4z3_-41" value="" style="endArrow=classic;html=1;rounded=0;" parent="oVAVsAvZxT9xoURa9ggT-1" edge="1">
          <mxGeometry width="50" height="50" relative="1" as="geometry">
            <mxPoint x="1" y="230" as="sourcePoint" />
            <mxPoint x="1" y="370" as="targetPoint" />
          </mxGeometry>
        </mxCell>
        <mxCell id="aAfN3tDzFbKExTuc4z3_-42" value="" style="endArrow=classic;html=1;rounded=0;" parent="oVAVsAvZxT9xoURa9ggT-1" edge="1">
          <mxGeometry width="50" height="50" relative="1" as="geometry">
            <mxPoint x="1" y="370" as="sourcePoint" />
            <mxPoint x="151" y="370" as="targetPoint" />
          </mxGeometry>
        </mxCell>
        <mxCell id="aAfN3tDzFbKExTuc4z3_-43" value="" style="endArrow=classic;html=1;rounded=0;" parent="oVAVsAvZxT9xoURa9ggT-1" source="aAfN3tDzFbKExTuc4z3_-26" target="aAfN3tDzFbKExTuc4z3_-28" edge="1">
          <mxGeometry width="50" height="50" relative="1" as="geometry">
            <mxPoint x="11" y="380" as="sourcePoint" />
            <mxPoint x="161" y="380" as="targetPoint" />
          </mxGeometry>
        </mxCell>
        <mxCell id="aAfN3tDzFbKExTuc4z3_-44" value="playerScore &amp;gt; botScore" style="strokeWidth=1;html=1;shape=mxgraph.flowchart.decision;whiteSpace=wrap;" parent="oVAVsAvZxT9xoURa9ggT-1" vertex="1">
          <mxGeometry x="61" y="398" width="180" height="60" as="geometry" />
        </mxCell>
        <mxCell id="aAfN3tDzFbKExTuc4z3_-45" value="" style="endArrow=classic;html=1;rounded=0;" parent="oVAVsAvZxT9xoURa9ggT-1" source="aAfN3tDzFbKExTuc4z3_-44" edge="1">
          <mxGeometry width="50" height="50" relative="1" as="geometry">
            <mxPoint x="141" y="528" as="sourcePoint" />
            <mxPoint x="151" y="488" as="targetPoint" />
          </mxGeometry>
        </mxCell>
        <mxCell id="aAfN3tDzFbKExTuc4z3_-46" value="да" style="text;html=1;align=center;verticalAlign=middle;resizable=0;points=[];autosize=1;strokeColor=none;fillColor=none;" parent="oVAVsAvZxT9xoURa9ggT-1" vertex="1">
          <mxGeometry x="151" y="446" width="40" height="30" as="geometry" />
        </mxCell>
        <mxCell id="aAfN3tDzFbKExTuc4z3_-47" value="нет" style="text;html=1;align=center;verticalAlign=middle;resizable=0;points=[];autosize=1;strokeColor=none;fillColor=none;" parent="oVAVsAvZxT9xoURa9ggT-1" vertex="1">
          <mxGeometry x="31" y="438" width="40" height="30" as="geometry" />
        </mxCell>
        <mxCell id="aAfN3tDzFbKExTuc4z3_-48" value="" style="endArrow=classic;html=1;rounded=0;" parent="oVAVsAvZxT9xoURa9ggT-1" source="aAfN3tDzFbKExTuc4z3_-44" edge="1">
          <mxGeometry width="50" height="50" relative="1" as="geometry">
            <mxPoint x="141" y="528" as="sourcePoint" />
            <mxPoint y="428" as="targetPoint" />
          </mxGeometry>
        </mxCell>
        <mxCell id="aAfN3tDzFbKExTuc4z3_-49" value="winner = &quot;Игрок&quot;" style="rounded=0;whiteSpace=wrap;html=1;" parent="oVAVsAvZxT9xoURa9ggT-1" vertex="1">
          <mxGeometry x="61" y="490" width="180" height="60" as="geometry" />
        </mxCell>
        <mxCell id="aAfN3tDzFbKExTuc4z3_-50" value="" style="endArrow=classic;html=1;rounded=0;" parent="oVAVsAvZxT9xoURa9ggT-1" source="aAfN3tDzFbKExTuc4z3_-49" edge="1">
          <mxGeometry width="50" height="50" relative="1" as="geometry">
            <mxPoint x="602" y="420" as="sourcePoint" />
            <mxPoint x="321" y="520" as="targetPoint" />
          </mxGeometry>
        </mxCell>
        <mxCell id="aAfN3tDzFbKExTuc4z3_-51" value="" style="endArrow=classic;html=1;rounded=0;" parent="oVAVsAvZxT9xoURa9ggT-1" edge="1">
          <mxGeometry width="50" height="50" relative="1" as="geometry">
            <mxPoint x="1" y="430" as="sourcePoint" />
            <mxPoint x="1" y="570" as="targetPoint" />
          </mxGeometry>
        </mxCell>
        <mxCell id="aAfN3tDzFbKExTuc4z3_-52" value="" style="endArrow=classic;html=1;rounded=0;" parent="oVAVsAvZxT9xoURa9ggT-1" edge="1">
          <mxGeometry width="50" height="50" relative="1" as="geometry">
            <mxPoint x="1" y="570" as="sourcePoint" />
            <mxPoint x="151" y="570" as="targetPoint" />
          </mxGeometry>
        </mxCell>
        <mxCell id="aAfN3tDzFbKExTuc4z3_-53" value="" style="endArrow=classic;html=1;rounded=0;" parent="oVAVsAvZxT9xoURa9ggT-1" target="aAfN3tDzFbKExTuc4z3_-44" edge="1">
          <mxGeometry width="50" height="50" relative="1" as="geometry">
            <mxPoint x="151" y="370" as="sourcePoint" />
            <mxPoint x="161" y="580" as="targetPoint" />
          </mxGeometry>
        </mxCell>
        <mxCell id="aAfN3tDzFbKExTuc4z3_-59" value="winner = &quot;Игрок&quot;" style="rounded=0;whiteSpace=wrap;html=1;" parent="oVAVsAvZxT9xoURa9ggT-1" vertex="1">
          <mxGeometry x="61" y="600" width="180" height="60" as="geometry" />
        </mxCell>
        <mxCell id="aAfN3tDzFbKExTuc4z3_-60" value="" style="endArrow=classic;html=1;rounded=0;" parent="oVAVsAvZxT9xoURa9ggT-1" source="aAfN3tDzFbKExTuc4z3_-59" edge="1">
          <mxGeometry width="50" height="50" relative="1" as="geometry">
            <mxPoint x="602" y="530" as="sourcePoint" />
            <mxPoint x="321" y="630" as="targetPoint" />
          </mxGeometry>
        </mxCell>
        <mxCell id="aAfN3tDzFbKExTuc4z3_-63" value="" style="endArrow=classic;html=1;rounded=0;" parent="oVAVsAvZxT9xoURa9ggT-1" edge="1">
          <mxGeometry width="50" height="50" relative="1" as="geometry">
            <mxPoint x="151" y="570" as="sourcePoint" />
            <mxPoint x="151" y="598" as="targetPoint" />
          </mxGeometry>
        </mxCell>
      </root>
    </mxGraphModel>
  </diagram>
  <diagram id="acODaKb0cfpO20F8UvuB" name="main">
    <mxGraphModel dx="1360" dy="705" grid="1" gridSize="10" guides="1" tooltips="1" connect="1" arrows="1" fold="1" page="1" pageScale="1" pageWidth="827" pageHeight="1169" math="0" shadow="0">
      <root>
        <mxCell id="0" />
        <mxCell id="1" parent="0" />
        <mxCell id="M29g3OyCLMlIdT3nI0b1-12" value="начало" style="strokeWidth=1;html=1;shape=mxgraph.flowchart.start_1;whiteSpace=wrap;" vertex="1" parent="1">
          <mxGeometry x="130" y="10" width="180" height="60" as="geometry" />
        </mxCell>
        <mxCell id="M29g3OyCLMlIdT3nI0b1-13" value="конец" style="strokeWidth=1;html=1;shape=mxgraph.flowchart.start_1;whiteSpace=wrap;" vertex="1" parent="1">
          <mxGeometry x="130" y="510" width="180" height="60" as="geometry" />
        </mxCell>
        <mxCell id="M29g3OyCLMlIdT3nI0b1-14" value="&lt;span style=&quot;font-size: 14px; white-space-collapse: preserve;&quot;&gt;GenerateNextCard()&lt;/span&gt;" style="shape=process;whiteSpace=wrap;html=1;backgroundOutline=1;align=center;fontFamily=Helvetica;" vertex="1" parent="1">
          <mxGeometry x="130" y="110" width="180" height="60" as="geometry" />
        </mxCell>
        <mxCell id="M29g3OyCLMlIdT3nI0b1-15" value="&lt;span style=&quot;font-size: 14px; white-space-collapse: preserve;&quot;&gt;DisplayCard(int cellIndex)&lt;/span&gt;" style="shape=process;whiteSpace=wrap;html=1;backgroundOutline=1;align=center;fontFamily=Helvetica;" vertex="1" parent="1">
          <mxGeometry x="130" y="210" width="180" height="60" as="geometry" />
        </mxCell>
        <mxCell id="M29g3OyCLMlIdT3nI0b1-16" value="&lt;span style=&quot;font-size: 14px; white-space-collapse: preserve;&quot;&gt;BotMove()&lt;/span&gt;" style="shape=process;whiteSpace=wrap;html=1;backgroundOutline=1;align=center;fontFamily=Helvetica;" vertex="1" parent="1">
          <mxGeometry x="130" y="310" width="180" height="60" as="geometry" />
        </mxCell>
        <mxCell id="M29g3OyCLMlIdT3nI0b1-17" value="&lt;span style=&quot;font-size: 14px; white-space-collapse: preserve;&quot;&gt;FinishGame()&lt;/span&gt;" style="shape=process;whiteSpace=wrap;html=1;backgroundOutline=1;align=center;fontFamily=Helvetica;" vertex="1" parent="1">
          <mxGeometry x="130" y="410" width="180" height="60" as="geometry" />
        </mxCell>
        <mxCell id="M29g3OyCLMlIdT3nI0b1-18" value="" style="endArrow=classic;html=1;rounded=0;" edge="1" parent="1" source="M29g3OyCLMlIdT3nI0b1-12" target="M29g3OyCLMlIdT3nI0b1-14">
          <mxGeometry width="50" height="50" relative="1" as="geometry">
            <mxPoint x="390" y="390" as="sourcePoint" />
            <mxPoint x="440" y="340" as="targetPoint" />
          </mxGeometry>
        </mxCell>
        <mxCell id="M29g3OyCLMlIdT3nI0b1-19" value="" style="endArrow=classic;html=1;rounded=0;" edge="1" parent="1" source="M29g3OyCLMlIdT3nI0b1-14" target="M29g3OyCLMlIdT3nI0b1-15">
          <mxGeometry width="50" height="50" relative="1" as="geometry">
            <mxPoint x="390" y="390" as="sourcePoint" />
            <mxPoint x="440" y="340" as="targetPoint" />
          </mxGeometry>
        </mxCell>
        <mxCell id="M29g3OyCLMlIdT3nI0b1-20" value="" style="endArrow=classic;html=1;rounded=0;" edge="1" parent="1" source="M29g3OyCLMlIdT3nI0b1-15" target="M29g3OyCLMlIdT3nI0b1-16">
          <mxGeometry width="50" height="50" relative="1" as="geometry">
            <mxPoint x="390" y="390" as="sourcePoint" />
            <mxPoint x="440" y="340" as="targetPoint" />
          </mxGeometry>
        </mxCell>
        <mxCell id="M29g3OyCLMlIdT3nI0b1-21" value="" style="endArrow=classic;html=1;rounded=0;" edge="1" parent="1" source="M29g3OyCLMlIdT3nI0b1-16" target="M29g3OyCLMlIdT3nI0b1-17">
          <mxGeometry width="50" height="50" relative="1" as="geometry">
            <mxPoint x="390" y="390" as="sourcePoint" />
            <mxPoint x="440" y="340" as="targetPoint" />
          </mxGeometry>
        </mxCell>
        <mxCell id="M29g3OyCLMlIdT3nI0b1-22" value="" style="endArrow=classic;html=1;rounded=0;" edge="1" parent="1" source="M29g3OyCLMlIdT3nI0b1-17" target="M29g3OyCLMlIdT3nI0b1-13">
          <mxGeometry width="50" height="50" relative="1" as="geometry">
            <mxPoint x="390" y="390" as="sourcePoint" />
            <mxPoint x="440" y="340" as="targetPoint" />
          </mxGeometry>
        </mxCell>
      </root>
    </mxGraphModel>
  </diagram>
</mxfile>
